<?xml version="1.0" encoding="UTF-8"?>
<svg id="Layer_17" data-name="Layer 17" xmlns="http://www.w3.org/2000/svg" viewBox="0 0 1928.55 1791.92">
  <defs>
    <style>
      .cls-1 {
        fill: #fff;
      }
    </style>
  </defs>
  <path class="cls-1" d="M913.49,1279.54c-63.62,0-112.74-28.22-131.38-75.5-2.89-7.32-4.29-14.41-4.29-21.66,0-35.59,33.28-66.49,91.34-84.83,9.4-41.68,25.84-88.08,48.86-137.93,23.3-50.44,47.79-92.38,64.75-119.4-48.3,25.86-94.68,39.08-164.52,57.5l-3.5,7.31c-2.57,5.73-15.62,34.89-19.42,44.48-37.11,103.88-30.01,125.55-25.32,139.89,1.52,4.63,2.83,8.63,2.03,14.4-.24,1.84-.73,5.68-2.96,5.68-.28,0-.56-.06-.84-.19-4.9-2.22-13-19.8-14.81-50.5-1.5-25.49,1.16-66.3,22.35-115.95l17.04-38.76c-29.1,6.87-58.99,12.53-88.9,16.83-33.99,35.2-84.02,86.42-126.58,125.48l-21.13,18.56c-23.85,20.85-106.59,90.83-169.9,116.19-33.26,13.2-63.38,19.89-89.53,19.89-59.38,0-86.78-33.4-99.32-61.43-4.92-10.72-7.41-21.51-7.41-32.09,0-45.1,44.84-76.69,82.47-95.25l.55-.37.04-.02c55.6-27.89,135.06-51.82,236.17-71.13,48.2-9.19,100.04-18.62,152.57-25.33l.59-.08c7.43-.96,15-1.98,22.5-3.01,41.51-41.93,81.53-84.98,123.9-130.56,16.59-17.85,33.74-36.3,51.86-55.63,4.69-4.96,16.22-17.75,30.81-33.96,15.93-17.69,35.76-39.7,55.79-61.64.97-1.79,2.13-3.56,3.35-5.42.41-.62.82-1.25,1.23-1.89.37-.74,47.12-85.43,64.89-96.28,2.03-1.29,4.02-1.95,5.91-1.95,5.46,0,8.86,6.21,8.86,16.21s-3.63,21.62-8.83,27.51c-.35.35-.68.77-1.04,1.2-.43.53-.87,1.07-1.38,1.59l-12.27,13.92c-7.65,8.47-15.44,17.26-22.98,25.76-4.3,4.85-8.62,9.72-12.96,14.59-12.92,22.11-25.01,42.15-36.7,61.54-3.3,5.47-6.6,10.94-9.91,16.45-19.29,32.08-37.01,61.81-58.56,100.79l-3.99,7.29c-9.15,16.7-19.51,35.62-30.34,56.96-1.05,2.03-2.09,4.12-3.14,6.21l-.99,1.97-4.65,9.35-.28.57c51.06-12.48,110.81-29.56,168.56-61.16,57.14-92.89,101.92-129.26,123.54-142.68,11.25-6.95,22.74-10.62,33.21-10.62,19.12,0,27.68,10.57,27.68,21.05,0,7.33-3.6,16.15-11.01,26.98-19.16,28.54-74.74,69.69-135.22,100.12-33.02,51.32-103.13,173.21-133.89,269.91,6.59-1.4,12.89-2.56,19.2-3.54,72.29-115.9,229.93-327.7,345.95-403.7,27.57-17.94,50.08-26.67,68.8-26.67,12.91,0,24.27,3.91,34.75,11.96,26.51,20.24,36.58,45.23,37.16,92.2,0,49.46-19.38,111.02-56.05,178.03-35.13,64.2-84.82,129.97-140,185.31,30.94,13.36,55.71,28.51,73.62,45.02.42.42.62,1.04.62,1.86,0,3.03-2.25,9.98-3.6,11.1-.68.68-1.62,1.1-2.53,1.1-1.01,0-2.11-.5-2.95-1.33-21.13-21.13-41.73-35.05-73.37-49.56-76.58,74.7-157.45,124.63-227.76,140.62-19.07,4.42-38.17,6.65-56.75,6.65ZM867.75,1106.48c-50.92,16.76-80.09,44.59-80.09,76.45,0,20.64,12.66,41.19,34.75,56.37,23.65,16.27,56.13,25.22,91.45,25.22,15.93,0,32.43-1.79,49.04-5.33,35.91-7.54,73.91-23.42,112.93-47.2,37.34-22.75,73.82-51.59,108.46-85.74-56.88-23.23-128.36-36.53-196.35-36.53-21.05,0-41.59,1.28-61.07,3.81-17.43,29.26-29.44,52.71-33.83,66.05-4.59,14.45-9.88,22.1-15.3,22.1-7.41,0-12.39-14.17-12.76-27.3l-.18-8.3c0-12.7.99-26.02,2.96-39.61ZM669.5,925.25c-46.84,5.3-92.8,12.08-136.62,20.16-109.7,19.87-200.93,46.13-256.88,73.93-24.51,12.26-43.41,26.54-56.16,42.44-11.92,14.87-17.96,30.44-17.96,46.29,0,13.46,4.34,26.66,12.9,39.22,13.79,20.2,37.38,30.88,68.22,30.88,22.51,0,48.79-5.79,78.13-17.21,16.28-6.36,33.73-14.69,51.87-24.75,92.51-50.93,182.82-135.2,259.13-211.25-.42.04-2.63.29-2.63.29ZM893.65,1099.38c-4.55,15.41-7.31,28.96-8.24,40.36,4.86-10.19,13.08-24.84,24.49-43.64-5.53,1.01-10.97,2.16-16.25,3.28ZM986.83,1081.72c70.18,0,144.96,13.38,205.28,36.72l4.25-4.42c47.52-49.22,90.71-108.02,121.62-165.57,34.1-63.5,52.13-122.93,52.13-171.87-.21-18.68-2.64-45.33-12.96-66.16-9.86-19.9-24.71-30-44.13-30-33.81,0-83.26,32.86-142.99,95.04-87.72,91.08-187.72,226.86-237.89,309.2,16.79-1.98,34.71-2.95,54.71-2.95ZM901.27,705.91c-63.94,72.01-126.23,139.89-185.29,201.89,29.72-4.56,56.38-9.43,81.41-14.87,19.22-41.84,39.9-77.48,56.52-106.13,2.1-3.63,4.15-7.15,6.12-10.57,15.03-26.3,29.56-50.8,41.24-70.32ZM1153.24,694.81c-14.61,0-65.59,37.72-116.07,112.87,85.33-49.74,122.29-95.07,122.29-107.39,0-4.53-3.38-5.49-6.22-5.49Z"/>
  <g>
    <path class="cls-1" d="M382.12,805.23c-.29,0-.6-.05-.92-.15-.65-.21-1.14-.56-1.44-1.04-.35-.55-.43-1.23-.21-1.91.84-2.63,1.07-5.02.68-7.12-.39-2.09-1.6-4.4-3.58-6.87-2.09-2.59-5.36-5.79-9.71-9.51l-66.45-57.12c-.07-.06-.13-.13-.19-.2-.32-.4-.8-1.28-.38-2.62.48-1.5,1.52-1.78,2.05-1.82l88.28-11.9c8.54-1.04,14.51-2.35,17.77-3.91,3.05-1.46,5-3.63,5.96-6.64.29-.9,1.07-1.46,2.03-1.46.31,0,.63.05.98.17.76.24,1.29.65,1.58,1.21.25.48.29,1.05.12,1.59-.64,1.99-1.73,5.04-3.24,9.08-1.51,4.03-2.57,6.98-3.14,8.78-.71,2.21-1.52,5.13-2.43,8.66-.84,3.34-1.56,5.95-2.13,7.74-.29.9-1.07,1.46-2.03,1.46-.31,0-.63-.05-.98-.17-1.63-.52-2.03-1.78-1.7-2.8,1.15-3.6,1.66-6.33,1.52-8.1-.11-1.38-.66-2.13-1.83-2.5-.43-.14-1.27-.3-2.77-.3-1.08,0-2.39.08-3.88.25l-32.58,4.29-11.15,34.88,18.98,16.37c2.86,2.41,5.31,3.95,7.27,4.58.91.29,1.78.44,2.58.44,1.56,0,2.93-.54,4.19-1.67,2.08-1.85,3.91-5.2,5.43-9.96.32-.99,1.14-1.6,2.14-1.6.29,0,.6.05.92.15,1.63.52,2,1.86,1.65,2.95-.61,1.9-1.58,4.6-2.9,8.01-1.44,3.81-2.63,7.18-3.53,10-.84,2.62-1.72,5.74-2.63,9.27-.78,3.14-1.51,5.8-2.18,7.9-.31.99-1.13,1.6-2.14,1.6ZM347.17,752.84l9.49-29.69-38.21,5.11,28.72,24.58Z"/>
    <path class="cls-1" d="M416.53,694.55c.62.2.86.5.73.91-.62,1.96-1.7,4.96-3.22,9.01-1.52,4.05-2.58,7-3.17,8.85-.72,2.26-1.54,5.18-2.45,8.74-.85,3.36-1.55,5.91-2.11,7.66-.13.41-.51.52-1.12.32-.62-.2-.86-.5-.73-.91,1.22-3.8,1.74-6.7,1.58-8.68-.16-1.98-1.11-3.25-2.86-3.81-1.44-.46-3.87-.5-7.28-.11l-33.56,4.41-11.74,36.73,19.73,17.02c3.04,2.56,5.64,4.18,7.8,4.87,3.19,1.02,5.93.51,8.23-1.54,2.3-2.04,4.25-5.59,5.86-10.63.16-.51.56-.67,1.17-.48s.84.55.68,1.07c-.59,1.85-1.55,4.5-2.87,7.93-1.45,3.85-2.64,7.21-3.56,10.09-.86,2.68-1.74,5.8-2.65,9.36-.78,3.15-1.5,5.76-2.16,7.81-.16.51-.56.67-1.17.48s-.84-.55-.68-1.07c.92-2.88,1.16-5.5.72-7.85-.44-2.35-1.73-4.86-3.89-7.53-2.15-2.67-5.45-5.91-9.91-9.71l-66.45-57.12c-.24-.3-.28-.71-.12-1.23.16-.51.42-.77.76-.78l88.34-11.91c8.73-1.06,14.8-2.41,18.22-4.04,3.41-1.63,5.66-4.14,6.75-7.54.13-.41.51-.52,1.12-.32ZM347.91,755.45l10.9-34.1-43.89,5.87,32.99,28.23Z"/>
    <path class="cls-1" d="M429.74,670.79c-.46,0-.94-.16-1.55-.51-1.98-1.15-1.44-2.45-1.22-2.82,1.99-3.42,3.24-6.07,3.71-7.87.4-1.51.23-2.74-.5-3.77-.87-1.21-2.63-2.6-5.24-4.11l-64.83-37.73c-2.61-1.52-4.65-2.38-6.08-2.55-.15-.02-.3-.03-.45-.03-1.02,0-2,.44-3,1.35-1.35,1.23-3.03,3.58-5.01,6.97-.34.59-.96.94-1.65.94-.46,0-.95-.15-1.49-.47-2.08-1.21-1.24-2.78-1.14-2.96l4.15-6.81c2.44-3.77,4.39-6.9,5.81-9.33,1.18-2.02,2.24-3.96,3.16-5.75.93-1.81,1.7-3.35,2.31-4.61,1.73-3.63,3.45-6.9,5.09-9.73,4.45-7.65,9.76-12.63,15.77-14.81,2.36-.85,4.75-1.28,7.1-1.28,3.72,0,7.46,1.08,11.11,3.2,5.3,3.08,9.23,7.47,11.7,13.04,2.22,5.01,3.23,10.47,3.01,16.25,14.97-1.23,27.14-2.65,36.21-4.22,9.33-1.61,16.64-3.68,21.71-6.13,4.92-2.38,8.51-5.48,10.69-9.21.31-.53.87-.85,1.5-.85.46,0,.94.16,1.55.51,1.98,1.15,1.43,2.45,1.22,2.82l-10.51,18.07c-1.11,1.91-4.43,4.45-20.33,7.12-11.29,1.9-26.24,3.36-44.44,4.35-.9,2.6-2.09,5.17-3.53,7.64-.2.34-.76,1.23-3.23,4.82l30.39,17.68c3.37,1.96,5.24,2.51,6.22,2.63.15.02.3.03.44.03,1,0,1.96-.45,2.91-1.36,1.31-1.25,2.98-3.62,4.97-7.04.34-.59.96-.94,1.65-.94.46,0,.95.15,1.49.47,2.07,1.21,1.24,2.78,1.14,2.96-1.73,2.97-3.09,5.21-4.18,6.85l-5.73,9.53-5.38,9.56c-.86,1.7-2.19,4.08-4.03,7.24-.31.53-.87.85-1.51.85ZM378.97,577.98c-1.23,0-2.41.15-3.52.45-4.63,1.26-8.68,4.83-12.05,10.61-1.88,3.24-2.67,5.87-2.27,7.62.27,1.19,1.54,3.16,6.05,5.78l28.28,16.46c1.43-1.87,2.92-4.13,4.44-6.74,4.01-6.89,5.41-12.69,4.17-17.24-1.24-4.56-5.04-8.71-11.28-12.34-5.24-3.05-9.89-4.6-13.83-4.6Z"/>
    <path class="cls-1" d="M481.42,578.8c.56.33.79.58.68.77l-10.51,18.06c-1.36,2.33-7.78,4.47-19.28,6.4-11.5,1.93-26.59,3.4-45.29,4.39-.91,2.85-2.15,5.62-3.72,8.33-.33.56-1.69,2.58-4.09,6.06l31.79,18.5c2.89,1.68,5.16,2.63,6.79,2.83,1.63.2,3.16-.38,4.58-1.74,1.42-1.36,3.16-3.82,5.22-7.36.16-.28.52-.26,1.08.07s.76.63.6.91c-1.69,2.89-3.06,5.15-4.13,6.78l-5.76,9.58-5.4,9.6c-.88,1.74-2.22,4.14-4.02,7.22-.11.19-.44.12-1-.21-.56-.33-.79-.58-.68-.77,2.06-3.55,3.35-6.3,3.86-8.25.51-1.95.27-3.62-.73-5.02-1-1.39-2.9-2.91-5.7-4.54l-64.83-37.73c-2.8-1.63-5.02-2.54-6.65-2.75-1.63-.2-3.18.37-4.65,1.7-1.46,1.34-3.23,3.78-5.29,7.32-.16.28-.52.26-1.08-.07s-.76-.63-.6-.91l4.13-6.78c2.47-3.81,4.41-6.93,5.82-9.36,1.19-2.05,2.26-3.99,3.2-5.82.94-1.83,1.71-3.38,2.33-4.64,1.73-3.62,3.41-6.83,5.04-9.63,4.29-7.37,9.28-12.09,14.98-14.15,5.7-2.06,11.35-1.46,16.95,1.8,5.04,2.93,8.74,7.05,11.09,12.36,2.35,5.3,3.28,11.06,2.79,17.27,15.86-1.27,28.55-2.72,38.06-4.37,9.52-1.65,16.88-3.73,22.1-6.26,5.22-2.52,8.99-5.79,11.33-9.81.11-.19.44-.12,1,.21ZM401.21,612.91c4.24-7.28,5.68-13.41,4.32-18.38-1.35-4.97-5.34-9.39-11.97-13.25-7.28-4.24-13.44-5.67-18.49-4.29-5.05,1.38-9.36,5.14-12.95,11.3-2.12,3.64-2.93,6.54-2.44,8.7.49,2.16,2.75,4.41,6.76,6.74l29.41,17.11c1.73-2.12,3.52-4.76,5.37-7.94Z"/>
    <path class="cls-1" d="M501.56,558.67c-.57,0-1.13-.24-1.73-.75-.43-.36-.72-.73-.89-1.12-.3-.69-.19-1.43.28-1.99,2.54-3.02,4.21-5.39,4.95-7.05.62-1.38.65-2.61.11-3.75-.65-1.34-2.15-3.01-4.45-4.95l-57.38-48.31c-2.3-1.93-4.17-3.11-5.56-3.49-.33-.09-.68-.14-1.02-.14-.86,0-1.77.3-2.71.9-1.54.98-3.6,3-6.13,6-.36.43-.88.67-1.44.67s-1.13-.24-1.73-.75c-.24-.2-.97-.82-1.05-1.74-.04-.5.11-.98.44-1.37l5.25-5.99c3.06-3.3,5.55-6.08,7.43-8.32,2.09-2.48,4.52-5.53,7.22-9.08l4.8-5.96c.38-.46.9-.7,1.46-.7s1.13.24,1.73.75c.24.2.97.81,1.05,1.74.04.5-.11.98-.44,1.37-2.45,2.92-4.03,5.26-4.69,6.96-.57,1.47-.57,2.75-.01,3.92.65,1.35,2.15,3.01,4.45,4.95l57.13,48.1c2.32,1.95,4.21,3.17,5.63,3.62.37.12.73.18,1.09.18.81,0,1.62-.28,2.48-.87,1.5-1.01,3.56-3.05,6.1-6.08.37-.43.88-.67,1.44-.67s1.14.24,1.73.75c.24.2.97.82,1.05,1.74.04.5-.11.99-.44,1.37-2.1,2.5-3.85,4.48-5.19,5.9l-7.49,8.65-7.05,8.62c-1.15,1.53-2.8,3.57-5,6.19-.36.43-.88.67-1.44.67Z"/>
    <path class="cls-1" d="M513.82,533.64c1.62.51,3.24.22,4.87-.88,1.63-1.09,3.77-3.21,6.41-6.36.21-.25.56-.16,1.06.25.5.42.64.75.43,1-2.09,2.48-3.8,4.43-5.13,5.84l-7.53,8.7-7.08,8.66c-1.17,1.56-2.83,3.62-4.99,6.18-.21.25-.56.16-1.06-.25-.5-.42-.64-.75-.43-1,2.64-3.14,4.37-5.6,5.17-7.4.8-1.79.83-3.46.09-5.01-.75-1.54-2.36-3.36-4.84-5.45l-57.38-48.31c-2.48-2.09-4.52-3.35-6.13-3.79-1.61-.43-3.25-.12-4.92.94-1.67,1.06-3.83,3.17-6.47,6.3-.21.25-.56.16-1.06-.25-.5-.42-.64-.75-.43-1l5.24-5.97c3.09-3.33,5.57-6.11,7.45-8.34,2.09-2.48,4.51-5.52,7.26-9.13l4.78-5.93c.21-.25.56-.16,1.06.25.5.42.64.75.43,1-2.57,3.06-4.22,5.52-4.94,7.38-.72,1.86-.71,3.57.04,5.11.75,1.55,2.36,3.36,4.84,5.45l57.13,48.1c2.48,2.09,4.53,3.39,6.14,3.9Z"/>
    <path class="cls-1" d="M570.24,485.03c-.84,0-1.45-.59-1.89-1.1-.32-.38-.53-.7-.66-1.02-.37-.92-.01-1.66.45-2.05,3.43-2.92,5.79-5.26,7.01-6.96,1.04-1.46,1.41-2.79,1.11-4.08-.34-1.47-1.49-3.37-3.42-5.65l-48.56-57.17c-2.48-2.91-3.98-3.89-4.81-4.2-.33-.12-.66-.18-1.02-.18-.77,0-1.64.28-2.6.83-1.72.99-4.43,3.05-8.05,6.12-4.84,4.11-7.46,8.43-7.79,12.83-.33,4.5,1.55,10.32,5.58,17.3.37.55.39,1.26.03,1.89-.17.3-.42.58-.79.89-.42.35-.99.76-1.69.76-.51,0-.99-.22-1.31-.6-.04-.04-.07-.09-.1-.13-2.17-3.22-5.11-7.43-8.73-12.52-3.61-5.07-6.44-8.82-8.43-11.16-.89-1.05-.76-2.38.33-3.31.5-.42,1.03-.63,1.59-.63.65,0,1.26.3,1.73.85.21.25.45.35.81.35.73,0,2.49-.45,6.05-3.47,7.2-5.69,15.64-12.65,25.13-20.71,4.87-4.13,9.98-8.62,15.19-13.33l8.31-7.27c2.86-2.43,4.82-4.42,5.82-5.93.81-1.21.98-2.29.55-3.4-.46-1-.19-2.09.73-2.86.49-.42,1.01-.63,1.56-.63.61,0,1.18.27,1.6.77.03.04.06.08.09.12,1.77,2.57,4.61,6.42,8.44,11.43,3.84,5.02,7.09,9.09,9.65,12.11.28.33,1.04,1.51-.7,2.99-.44.38-1.04.81-1.76.81-.5,0-.98-.22-1.3-.6-5.39-5.87-10.27-9.13-14.48-9.65-.43-.05-.87-.08-1.31-.08-3.8,0-8.07,1.99-12.69,5.91-3.6,3.06-6.05,5.41-7.27,6.98-1.01,1.3-1.38,2.48-1.15,3.59.19.9.94,2.59,3.43,5.51l48.35,56.92c2.5,2.94,4.11,4.02,5.03,4.41.44.19.9.28,1.39.28.8,0,1.7-.25,2.68-.73,1.87-.92,4.56-2.87,8-5.79.35-.29.77-.45,1.21-.45,1.01,0,1.68.79,1.9,1.05,1.55,1.83.24,3.04.09,3.17-2.73,2.32-4.98,4.16-6.71,5.48l-9.69,8.02-9.13,7.96c-1.56,1.47-3.76,3.41-6.7,5.91-.31.26-.7.4-1.1.4Z"/>
    <path class="cls-1" d="M498.52,422.29c-.35,4.84,1.58,10.92,5.81,18.23.14.17-.02.44-.47.82-.45.38-.75.5-.89.33-2.19-3.24-5.1-7.42-8.75-12.55-3.64-5.12-6.48-8.88-8.51-11.27-.35-.41-.3-.81.15-1.19.45-.38.85-.37,1.2.04,1.54,1.81,4.53.83,8.98-2.95,7.21-5.7,15.58-12.6,25.13-20.71,4.86-4.12,9.93-8.58,15.22-13.36l8.29-7.25c2.96-2.52,4.99-4.59,6.08-6.23,1.09-1.63,1.32-3.24.68-4.83-.2-.4-.09-.77.32-1.12.41-.35.76-.36,1.04-.03,1.78,2.6,4.61,6.43,8.49,11.5,3.88,5.07,7.11,9.12,9.7,12.17.14.17-.04.46-.53.88s-.81.55-.95.38c-5.7-6.21-10.85-9.6-15.44-10.17-4.59-.56-9.64,1.5-15.16,6.18-3.7,3.15-6.2,5.55-7.48,7.21-1.28,1.66-1.76,3.27-1.43,4.83.33,1.56,1.58,3.62,3.75,6.17l48.35,56.92c2.17,2.55,4.03,4.16,5.58,4.82,1.55.67,3.33.5,5.33-.49,2-.98,4.76-2.98,8.3-5.99.25-.21.58-.07,1,.43.42.49.51.85.26,1.06-2.72,2.31-4.93,4.12-6.65,5.44l-9.74,8.06-9.16,7.99c-1.58,1.48-3.81,3.45-6.69,5.89-.17.14-.46-.04-.88-.53-.42-.49-.55-.81-.38-.95,3.54-3.01,5.96-5.41,7.26-7.23,1.3-1.81,1.75-3.57,1.35-5.29-.4-1.72-1.64-3.81-3.74-6.28l-48.56-57.17c-2.17-2.55-3.98-4.1-5.43-4.64-1.45-.54-3.08-.29-4.89.75-1.81,1.04-4.56,3.13-8.27,6.28-5.19,4.41-7.96,9.03-8.31,13.86Z"/>
    <path class="cls-1" d="M652.62,421.96c-.79,0-1.46-.46-2.01-1.37-1.23-2.06.26-3.04.44-3.14,3.39-2.02,5.74-3.72,6.98-5.04,1.04-1.1,1.47-2.25,1.32-3.51-.17-1.48-1.04-3.55-2.59-6.14l-38.44-64.41c-1.54-2.58-2.92-4.3-4.12-5.11-.68-.46-1.43-.68-2.31-.68-.45,0-.94.06-1.46.18-1.77.42-4.38,1.66-7.76,3.67-.29.18-.63.27-.96.27-.79,0-1.46-.46-2.01-1.37-1.23-2.06.26-3.04.44-3.14l6.93-3.94c3.97-2.12,7.24-3.94,9.74-5.44,2.78-1.66,6.07-3.75,9.79-6.22l6.49-4.06c.32-.19.66-.29.99-.29.79,0,1.46.46,2.01,1.37,1.23,2.06-.26,3.04-.44,3.14-3.28,1.96-5.53,3.65-6.71,5.04-1.02,1.21-1.44,2.42-1.29,3.7.17,1.48,1.04,3.55,2.59,6.14l38.28,64.13c1.55,2.6,2.94,4.37,4.14,5.26.65.48,1.36.72,2.19.72h0c.44,0,.92-.07,1.42-.2,1.75-.46,4.36-1.73,7.75-3.75.3-.18.63-.27.96-.27.79,0,1.46.46,2.01,1.37.29.49.45.93.48,1.35.06.75-.29,1.42-.92,1.8-2.85,1.7-5.08,2.97-6.83,3.89l-9.91,5.73-9.48,5.85c-1.57,1.06-3.86,2.5-6.75,4.22-.29.18-.63.27-.96.27Z"/>
    <path class="cls-1" d="M671.76,402.21c1.36,1.01,2.99,1.27,4.89.76,1.9-.5,4.61-1.81,8.14-3.91.28-.17.58.03.92.59.33.56.36.92.08,1.08-2.78,1.66-5.04,2.94-6.76,3.85l-9.96,5.76-9.52,5.87c-1.61,1.09-3.86,2.49-6.73,4.21-.28.17-.58-.03-.92-.59s-.36-.92-.08-1.08c3.52-2.1,5.96-3.87,7.31-5.3,1.34-1.43,1.92-3,1.72-4.71-.2-1.7-1.13-3.95-2.79-6.73l-38.44-64.41c-1.66-2.78-3.18-4.64-4.56-5.58-1.38-.94-3.03-1.18-4.96-.72-1.93.46-4.65,1.74-8.18,3.84-.28.17-.58-.03-.92-.59s-.36-.92-.08-1.08l6.9-3.93c4.01-2.14,7.26-3.96,9.77-5.45,2.78-1.66,6.07-3.75,9.85-6.26l6.46-4.04c.28-.17.58.03.92.58.33.56.36.92.08,1.08-3.43,2.05-5.79,3.84-7.08,5.36-1.29,1.53-1.84,3.14-1.64,4.84.2,1.71,1.13,3.95,2.79,6.73l38.28,64.13c1.66,2.78,3.17,4.68,4.53,5.69Z"/>
    <path class="cls-1" d="M712.51,385.55c-.46,0-1.6-.16-2.16-1.66-.27-.71-.28-1.37-.02-1.96.17-.38.53-.89,1.3-1.18,2.58-.98,4.59-2.3,5.98-3.91,1.39-1.61,2.45-3.99,3.14-7.08.73-3.25,1.19-7.8,1.39-13.52l3.25-87.57c0-.09.02-.19.04-.28.12-.5.5-1.42,1.81-1.93.39-.15.75-.22,1.09-.22.63,0,1.2.24,1.61.69l64.32,61.61c6.14,6.03,10.89,9.88,14.13,11.46,1.71.83,3.42,1.25,5.09,1.25,1.27,0,2.56-.25,3.83-.73.25-.1.51-.14.77-.14.44,0,1.54.16,2.12,1.69.61,1.59-.13,2.69-1.13,3.07-1.97.75-5.04,1.8-9.12,3.12-4.08,1.32-7.05,2.34-8.83,3.01-2.17.82-4.95,2-8.28,3.5-3.15,1.43-5.64,2.5-7.39,3.16-.25.1-.51.15-.77.15-.44,0-1.54-.17-2.12-1.69-.61-1.59.13-2.69,1.13-3.07,3.53-1.34,5.98-2.64,7.28-3.86,1.01-.95,1.25-1.84.82-2.99-.32-.83-1.28-2.41-4.11-5.24l-23.66-22.81-34.22,13.02-.97,25.05c-.1,3.73.22,6.62.95,8.54,1,2.62,2.69,4.11,5.18,4.53.57.1,1.2.15,1.86.15,2.5,0,5.64-.71,9.32-2.11.29-.11.59-.17.87-.17.46,0,1.6.16,2.17,1.66.34.89.2,1.55.02,1.95-.17.38-.53.89-1.3,1.18-1.86.71-4.57,1.62-8.07,2.72-3.88,1.25-7.25,2.42-10.02,3.47-2.56.97-5.55,2.23-8.89,3.73-2.93,1.35-5.47,2.43-7.54,3.22-.29.11-.59.17-.87.17ZM729.98,324.72l29.14-11.09-27.82-26.69-1.32,37.78Z"/>
    <path class="cls-1" d="M818.8,342.62c.23.61.14.99-.26,1.14-1.92.73-4.94,1.76-9.05,3.1-4.12,1.33-7.08,2.35-8.9,3.04-2.22.84-5.01,2.02-8.36,3.53-3.15,1.43-5.59,2.47-7.3,3.13-.4.15-.72-.07-.95-.68-.23-.61-.14-.98.26-1.14,3.73-1.42,6.33-2.81,7.77-4.17,1.45-1.36,1.84-2.9,1.19-4.61-.54-1.41-2.02-3.33-4.45-5.76l-24.37-23.49-36.04,13.71-1.01,26.04c-.11,3.97.24,7.01,1.05,9.13,1.19,3.13,3.3,4.96,6.33,5.48,3.03.52,7.02-.16,11.96-2.04.5-.19.87.02,1.1.62.23.61.09,1-.41,1.2-1.82.69-4.48,1.59-7.99,2.69-3.91,1.26-7.28,2.42-10.11,3.5-2.63,1-5.62,2.25-8.97,3.76-2.95,1.36-5.44,2.42-7.46,3.18-.5.19-.87-.01-1.1-.62s-.09-1,.41-1.2c2.82-1.08,5.02-2.52,6.59-4.33s2.72-4.39,3.47-7.73c.75-3.34,1.22-7.95,1.42-13.8l3.25-87.56c.09-.38.38-.67.89-.86.5-.19.86-.16,1.08.11l64.37,61.66c6.27,6.17,11.11,10.07,14.51,11.72,3.4,1.65,6.77,1.84,10.1.58.4-.15.72.07.95.68ZM728.41,326.92l33.46-12.73-31.95-30.66-1.52,43.39Z"/>
    <path class="cls-1" d="M909.71,327.69c-.53,0-1.77-.23-1.85-2.4-.02-.5.02-.88.11-1.21.28-.95,1.02-1.31,1.62-1.33,3.95-.15,6.82-.5,8.54-1.07,1.44-.47,2.37-1.27,2.85-2.44.56-1.38.79-3.61.68-6.62l-2.77-74.96c-.11-3.02-.48-5.2-1.09-6.5-.51-1.08-1.48-1.8-2.96-2.21-1.35-.37-3.38-.56-6.03-.56-.79,0-1.63.02-2.53.05h0c-.6,0-1.83-.24-1.91-2.4-.09-2.29,1.3-2.52,1.73-2.54l8.14-.14c1.53.02,2.91.02,4.2.02,2.61,0,4.84-.03,6.63-.1,4.04-.15,8.08-.46,12-.92,4.87-.4,8.12-.63,9.98-.7,1.07-.04,2.13-.06,3.18-.06,10.13,0,19.42,1.87,27.6,5.56,9.06,4.09,16.27,9.95,21.42,17.42,5.17,7.48,7.96,16.1,8.32,25.63.4,10.7-1.8,20.4-6.53,28.83-4.73,8.43-11.42,15.13-19.88,19.93-8.43,4.78-17.84,7.39-27.96,7.77-1.27.05-2.64.07-4.06.07-2.12,0-4.45-.05-6.92-.16-1.47-.05-3.34-.09-5.71-.11-.39,0-.79,0-1.2,0-1.99,0-4.16.04-6.43.13l-10.98.57c-1.89.18-4.64.33-8.11.46-.02,0-.04,0-.06,0ZM950.46,227.01c-.58,0-1.17.01-1.77.03-4.51.17-8.02.56-10.43,1.16-2.17.55-3.67,1.47-4.59,2.83-.94,1.38-1.36,3.56-1.25,6.46l2.69,72.85c.11,2.99.61,5.31,1.47,6.89.8,1.47,2.26,2.52,4.47,3.23,1.97.63,4.67.95,8.05.95h0c.72,0,1.47-.01,2.26-.04,8.34-.31,15.77-2.35,22.08-6.07,6.27-3.69,11.13-9.06,14.44-15.96,3.34-6.95,4.85-15.36,4.5-25-.34-9.12-2.4-17.45-6.12-24.75-3.7-7.25-8.86-12.96-15.34-16.98-6-3.72-12.88-5.6-20.46-5.6Z"/>
    <path class="cls-1" d="M942.27,325.15c-1.52-.05-3.44-.09-5.76-.11-2.33-.02-4.89.02-7.7.12l-11,.57c-1.94.18-4.64.33-8.09.46-.22,0-.34-.31-.36-.96-.02-.65.07-.98.29-.98,4.1-.15,7.09-.53,8.96-1.14,1.87-.61,3.12-1.71,3.77-3.3.64-1.59.91-4,.79-7.24l-2.77-74.96c-.12-3.24-.53-5.6-1.23-7.09-.7-1.49-2.01-2.49-3.92-3.02-1.91-.52-4.92-.71-9.02-.56-.22,0-.34-.31-.36-.96-.02-.65.07-.98.29-.98l8.1-.14c4.54.05,8.16.02,10.86-.08,4.1-.15,8.14-.46,12.12-.93,4.74-.39,8.03-.62,9.86-.69,11.22-.41,21.26,1.38,30.11,5.37,8.85,4,15.78,9.63,20.81,16.9,5.02,7.27,7.71,15.55,8.05,24.83.39,10.47-1.73,19.82-6.34,28.04-4.62,8.22-11.05,14.67-19.31,19.36-8.26,4.68-17.35,7.21-27.28,7.57-3.13.12-6.75.09-10.86-.08ZM974.21,316.6c6.56-3.86,11.57-9.4,15.03-16.61,3.46-7.21,5.01-15.77,4.64-25.71-.35-9.39-2.44-17.85-6.29-25.38-3.85-7.53-9.14-13.39-15.89-17.57-6.75-4.18-14.44-6.11-23.07-5.79-4.64.17-8.22.58-10.74,1.21-2.52.64-4.34,1.78-5.47,3.44-1.13,1.66-1.63,4.11-1.51,7.35l2.69,72.85c.12,3.24.67,5.76,1.66,7.56.98,1.8,2.76,3.12,5.33,3.94,2.57.83,6.17,1.15,10.82.98,8.63-.32,16.23-2.41,22.79-6.27Z"/>
    <path class="cls-1" d="M1113.15,338.64c-.34,0-.72-.03-1.12-.1l-66.99-10.97c-.42-.07-1.77-.47-1.4-2.73.29-1.79,1.21-2.17,1.92-2.17.08,0,.2,0,.28.02,2.92.48,5.3.72,7.06.72.58,0,1.09-.03,1.53-.08,1.5-.17,2.57-.77,3.27-1.83.82-1.25,1.49-3.39,1.97-6.36l12.12-74.02c.49-2.96.54-5.17.15-6.56-.33-1.19-1.17-2.11-2.56-2.81-1.63-.82-4.42-1.56-8.29-2.19-.42-.07-1.77-.47-1.4-2.73.3-1.79,1.21-2.17,1.92-2.17.08,0,.2,0,.28.02l64.27,10.53c1.77.29,2.73,1.63,2.44,3.4l-2.9,19.69c-.13.8-.79,1.72-2.23,1.72-.08,0-.16,0-.24,0-1.48-.09-2.15-1-2.28-1.82-.02-.13-.02-.26,0-.39.56-5.3-.34-9.68-2.69-13-2.36-3.34-5.81-5.34-10.55-6.12l-9.75-1.6c-2.41-.4-4.43-.6-6.01-.6-.73,0-1.36.04-1.89.13-1.45.23-2.49.83-3.18,1.81-.79,1.13-1.42,3.04-1.85,5.69l-5.07,30.98,18.02,2.95c1.87.31,3.58.46,5.06.46,2.26,0,4.06-.36,5.35-1.06,2.03-1.11,3.35-3.47,3.93-7.02.11-.68.69-1.47,1.96-1.47.21,0,.47.02.77.07,2.26.37,2.21,1.77,2.15,2.2l-2.29,12.95c-.5,3.03-.83,5.37-.98,6.94l-1.1,7.77c-.12.71-.7,1.5-1.96,1.5-.21,0-.47-.02-.78-.07-.49-.08-.86-.19-1.16-.35-.87-.46-1.08-1.26-.98-1.85.69-4.22.2-7.4-1.47-9.45-1.72-2.1-5.08-3.57-10.01-4.38l-17.55-2.87-5.78,35.29c-.56,3.43-.39,5.19-.15,6.07.3,1.07,1.04,1.9,2.27,2.51,1.47.74,3.97,1.4,7.43,1.97l12.79,2.1c1.01.17,2.01.25,2.98.25,3.52,0,6.65-1.08,9.55-3.3,3.74-2.86,6.7-7.28,8.81-13.15.19-.68.81-1.3,1.85-1.3.15,0,.33.01.52.05.5.08.96.25,1.38.49.79.48,1.17,1.26,1.04,2.08-.01.07-.03.14-.05.21-2.03,6.46-3.66,13.41-4.85,20.66-.2,1.25-.7,2.17-1.47,2.72-.55.39-1.25.59-2.09.59Z"/>
    <path class="cls-1" d="M1118.95,313.36c.32.05.6.16.85.3.25.15.36.33.32.54-2.06,6.56-3.69,13.51-4.9,20.87-.14.85-.43,1.44-.86,1.75-.44.31-1.13.39-2.09.23l-66.99-10.97c-.21-.04-.27-.37-.16-1.01.1-.64.26-.94.48-.91,4.05.66,7.05.88,9,.65,1.95-.23,3.4-1.06,4.35-2.49.94-1.43,1.68-3.75,2.2-6.94l12.12-74.02c.52-3.2.56-5.6.11-7.21-.45-1.6-1.56-2.85-3.33-3.75-1.77-.89-4.68-1.67-8.73-2.33-.21-.04-.27-.37-.16-1.01.11-.64.26-.94.48-.91l64.27,10.53c.96.16,1.36.72,1.2,1.67l-2.9,19.72c-.05.32-.35.46-.89.43-.54-.03-.84-.22-.89-.56.61-5.7-.38-10.38-2.96-14.03-2.58-3.65-6.42-5.89-11.54-6.73l-9.75-1.6c-3.73-.61-6.52-.77-8.38-.47-1.85.3-3.25,1.11-4.18,2.44-.93,1.32-1.63,3.43-2.1,6.3l-5.31,32.46,19.5,3.19c5.12.84,8.9.58,11.37-.76,2.46-1.35,4.03-4.04,4.69-8.1.03-.21.37-.27,1.01-.16.64.1.94.26.91.48l-2.28,12.92c-.51,3.09-.84,5.44-.99,7.06l-1.1,7.7c-.04.21-.37.27-1.01.16-.64-.1-.94-.26-.91-.48.77-4.69.17-8.23-1.79-10.64-1.96-2.4-5.6-4.04-10.93-4.91l-19.03-3.12-6.02,36.77c-.49,2.99-.53,5.22-.11,6.71.41,1.49,1.43,2.64,3.05,3.45,1.62.81,4.24,1.51,7.86,2.11l12.79,2.1c5.12.84,9.67-.28,13.68-3.34,4-3.06,7.11-7.7,9.34-13.9.03-.21.26-.29.69-.21Z"/>
    <path class="cls-1" d="M1196.56,363.51c-4.66,0-9.72-.94-15.04-2.79-8.06-2.8-14.9-7.27-20.33-13.27-.66-.79-.99-1.58-1.01-2.39-.01-.58.08-1.34.29-2.32l5.24-21.46c.16-1.07,1-1.78,2.15-1.78.16,0,.33.01.51.04,1.68.27,2.18,1.47,2.1,2.42-.9,7.68-.08,14.89,2.41,21.48,2.45,6.47,7.03,10.79,14,13.22,2.53.88,5,1.32,7.35,1.32,2.07,0,4.11-.35,6.06-1.03,4.02-1.41,7.05-4.99,9.02-10.63,1.5-4.31,1.85-8.41,1.04-12.19-.83-3.87-2.27-7.37-4.3-10.4-2.09-3.13-5.15-7.07-9.07-11.72-3.89-4.69-6.92-8.66-9-11.81-2.16-3.26-3.68-7-4.51-11.11-.86-4.18-.47-8.65,1.14-13.28,1.87-5.39,4.96-9.57,9.18-12.42,4.17-2.82,8.93-4.4,14.14-4.69.72-.04,1.44-.06,2.16-.06,4.41,0,8.85.77,13.2,2.28,6.16,2.14,11.91,5.56,17.09,10.16,2.46,1.93,2.22,3.99,1.85,5.05l-5.02,17.88c-.34.97-1.1,1.52-2.01,1.52-.29,0-.59-.06-.9-.16-1.16-.41-1.81-1.36-1.71-2.49,0-.04.01-.09.02-.13.98-5.31.51-10.79-1.39-16.3-1.85-5.37-5.83-9.05-12.16-11.26-2.45-.85-4.75-1.28-6.82-1.28-2.37,0-4.53.57-6.43,1.69-3.68,2.17-6.24,5.46-7.84,10.06-1.28,3.68-1.51,7.23-.67,10.56.86,3.43,2.3,6.59,4.3,9.39,2.08,2.92,5.08,6.74,8.9,11.35,4.29,5.16,7.56,9.39,9.73,12.56,2.26,3.29,3.9,7.09,4.88,11.3,1,4.31.65,8.94-1.03,13.78-1.79,5.14-4.74,9.42-8.77,12.71-4.04,3.3-9.03,5.31-14.83,5.99-1.26.15-2.57.22-3.89.22Z"/>
    <path class="cls-1" d="M1195.81,286.58c.91,3.63,2.42,6.93,4.53,9.9,2.11,2.96,5.1,6.78,8.97,11.44,4.27,5.15,7.49,9.29,9.65,12.45s3.71,6.75,4.65,10.79c.94,4.04.61,8.36-.99,12.95-1.7,4.9-4.47,8.91-8.3,12.04s-8.52,5.01-14.06,5.66c-5.54.65-11.63-.18-18.26-2.49-7.86-2.73-14.43-7.02-19.71-12.86-.4-.48-.61-.96-.62-1.42-.01-.46.07-1.12.26-1.97l5.25-21.5c.04-.44.36-.62.95-.53.6.09.87.36.84.81-.92,7.91-.09,15.29,2.51,22.14,2.59,6.85,7.56,11.55,14.91,14.1,5.1,1.77,9.9,1.87,14.39.29,4.49-1.58,7.81-5.43,9.94-11.55,1.6-4.59,1.96-8.92,1.09-13-.87-4.08-2.38-7.71-4.52-10.92-2.15-3.2-5.21-7.15-9.17-11.85-3.87-4.66-6.83-8.55-8.89-11.67-2.06-3.12-3.49-6.64-4.29-10.58-.8-3.94-.44-8.1,1.08-12.49,1.77-5.1,4.64-8.99,8.6-11.67,3.96-2.68,8.42-4.16,13.38-4.44,4.96-.28,9.88.44,14.78,2.14,6.02,2.09,11.56,5.39,16.63,9.9,1.35,1.04,1.82,2.18,1.39,3.4l-5.05,17.97c-.14.41-.47.52-.98.35-.51-.18-.75-.49-.71-.93,1.03-5.59.55-11.27-1.44-17.05-1.99-5.78-6.35-9.84-13.09-12.18-5.71-1.99-10.55-1.81-14.51.53-3.96,2.34-6.79,5.96-8.49,10.85-1.38,3.98-1.62,7.78-.71,11.42Z"/>
    <path class="cls-1" d="M1285.81,405.1c-.3,0-.6-.07-.88-.22-2.89-1.52-5.2-2.8-6.88-3.81l-10.05-5.47-9.93-5.05c-1.73-.79-4.08-1.96-7.12-3.57-.65-.34-1.03-.99-1.01-1.74,0-.42.14-.87.41-1.37.51-.98,1.2-1.48,2.03-1.48.31,0,.6.07.88.22,3.5,1.84,6.17,2.96,7.94,3.33.43.09.84.13,1.22.13.94,0,1.75-.27,2.46-.83,1.18-.92,2.49-2.74,3.89-5.41l34.95-66.37c1.4-2.66,2.15-4.73,2.22-6.18.06-1.23-.44-2.37-1.54-3.48-1.29-1.29-3.7-2.88-7.17-4.71-.65-.34-1.03-.99-1.01-1.74,0-.42.14-.87.41-1.37.52-.98,1.2-1.48,2.03-1.48.31,0,.6.07.88.22l6.97,3.86c3.89,2.29,7.15,4.13,9.71,5.48,2.86,1.51,6.37,3.23,10.41,5.12l6.85,3.42c.47.25.8.64.95,1.12.28.89-.17,1.73-.32,2.01-.51.98-1.2,1.48-2.03,1.48-.31,0-.6-.07-.88-.22-3.37-1.78-6-2.82-7.8-3.1-.37-.06-.72-.09-1.05-.09-1.09,0-2,.3-2.78.91-1.18.92-2.48,2.74-3.89,5.41l-34.8,66.08c-1.41,2.68-2.2,4.79-2.33,6.27-.11,1.22.36,2.31,1.44,3.35,1.31,1.25,3.74,2.82,7.24,4.66.18.1,1.72.99.6,3.11-.52.98-1.2,1.48-2.03,1.48Z"/>
    <path class="cls-1" d="M1277.06,392.35c-.16,1.69.48,3.21,1.9,4.57,1.42,1.36,3.95,2.99,7.58,4.91.29.15.28.51-.02,1.09-.3.57-.6.78-.88.63-2.87-1.51-5.13-2.76-6.8-3.77l-10.1-5.5-9.97-5.07c-1.77-.81-4.14-2-7.1-3.56-.29-.15-.28-.51.02-1.09.3-.57.6-.78.88-.63,3.63,1.91,6.41,3.07,8.33,3.47,1.92.4,3.56.07,4.91-.98,1.35-1.06,2.78-3.02,4.29-5.89l34.95-66.37c1.51-2.87,2.3-5.13,2.39-6.8.08-1.67-.58-3.2-1.97-4.61-1.4-1.41-3.91-3.07-7.54-4.98-.29-.15-.28-.51.02-1.09.3-.57.6-.79.88-.63l6.95,3.84c3.91,2.31,7.16,4.14,9.74,5.5,2.87,1.51,6.36,3.23,10.47,5.15l6.81,3.41c.29.15.28.51-.02,1.09-.3.57-.6.79-.88.63-3.54-1.86-6.29-2.95-8.27-3.25-1.97-.31-3.64.07-4.99,1.13-1.35,1.06-2.78,3.02-4.29,5.89l-34.8,66.08c-1.51,2.87-2.34,5.15-2.5,6.83Z"/>
    <path class="cls-1" d="M1395.91,479.44c-.53,0-1.14-.15-2-.5-12.48-6-22.59-12.01-30.13-17.89-9.52-7.43-16.43-15.94-20.52-25.29-4.11-9.38-5.51-18.94-4.15-28.42,1.35-9.46,5.14-18.23,11.26-26.07,6.6-8.46,14.63-14.27,23.87-17.27,5.09-1.65,10.4-2.49,15.77-2.49,4.34,0,8.82.55,13.33,1.63,10.03,2.4,19.76,7.24,28.92,14.38,4.57,3.57,8.61,7.42,12,11.46,3.41,4.07,5.87,8.06,7.31,11.86.6,1.28.74,2.14.48,2.87-.12.34-.38.88-1.4,2.44l-10.21,16.24s-.06.08-.09.12c-.38.48-.96.76-1.58.76-.44,0-.9-.13-1.4-.39-1.51-.79-1.59-2.1-1.2-2.97,6.74-16.43,3.55-29.49-9.77-39.88-6.49-5.06-13.57-8.22-21.04-9.37-2.05-.32-4.12-.48-6.15-.48-5.34,0-10.68,1.11-15.88,3.31-7.19,3.03-13.67,8.21-19.26,15.38-5.49,7.03-9.26,14.88-11.2,23.34-1.93,8.4-1.51,16.87,1.26,25.17,2.76,8.28,8.29,15.71,16.45,22.08,5.26,4.11,9.81,6.19,13.53,6.19.31,0,.62-.01.92-.04,3.85-.37,7.92-3.27,12.08-8.61,3.34-4.28,5.42-7.48,6.17-9.51.63-1.7.37-3.35-.79-5.03-1.36-1.96-4.4-4.78-9.02-8.39-.9-.7-1.5-2.1-.23-3.73.37-.47.83-.82,1.38-1.03.31-.12.62-.18.91-.18.46,0,.89.15,1.25.42,6.3,5.6,11.53,10.02,15.6,13.2,3.88,3.03,8.21,6.2,12.88,9.43.65.51.93,1.25.83,2.08-.07.58-.26,1.07-.56,1.46-.6.77-1.29,1.15-2.06,1.15-.49,0-.97-.17-1.39-.5-2.36-2-3.59-2.29-4.11-2.29-.52,0-1.65.29-3.55,2.16-1.69,1.66-4.48,4.97-8.27,9.83-2.93,3.75-4.87,6.54-5.78,8.29-1.35,2.58-1.83,3.3-2.09,3.65-.66.84-1.33,1.3-2.05,1.39-.09.01-.19.02-.3.02Z"/>
    <path class="cls-1" d="M1344.64,435.16c-4.02-9.16-5.36-18.37-4.04-27.61,1.32-9.24,4.97-17.7,10.96-25.36,6.44-8.26,14.16-13.85,23.15-16.76,8.99-2.92,18.42-3.2,28.29-.83,9.87,2.36,19.32,7.06,28.34,14.11,4.51,3.52,8.44,7.27,11.77,11.25,3.34,3.97,5.69,7.8,7.07,11.48.42.87.57,1.47.45,1.79-.12.32-.53,1.03-1.24,2.12l-10.23,16.27c-.2.26-.57.24-1.1-.04-.54-.28-.71-.62-.53-1.03,6.98-17.02,3.58-30.91-10.22-41.68-6.73-5.25-13.97-8.47-21.74-9.67-7.77-1.2-15.38-.22-22.84,2.93-7.46,3.15-14.08,8.43-19.86,15.84-5.65,7.24-9.48,15.21-11.48,23.92-2,8.71-1.57,17.37,1.3,25.98,2.87,8.61,8.52,16.21,16.95,22.78,6.05,4.72,11.21,6.87,15.51,6.46,4.29-.41,8.67-3.47,13.12-9.18,3.46-4.43,5.59-7.73,6.4-9.91.81-2.18.49-4.31-.96-6.4-1.45-2.09-4.56-5-9.33-8.72-.51-.4-.5-.94.03-1.62.2-.25.45-.44.74-.55.29-.11.52-.1.7.03,6.31,5.61,11.51,10.01,15.59,13.2,3.92,3.05,8.23,6.22,12.94,9.48.17.13.24.36.2.67-.04.31-.12.55-.26.72-.47.6-.91.73-1.34.4-2.06-1.75-3.75-2.62-5.05-2.61-1.31,0-2.84.87-4.59,2.58s-4.55,5.05-8.41,9.98c-2.99,3.83-4.97,6.67-5.93,8.52-.97,1.85-1.61,2.99-1.95,3.41-.4.51-.75.79-1.05.82-.31.04-.82-.09-1.55-.39-12.35-5.94-22.28-11.84-29.77-17.68-9.37-7.31-16.06-15.54-20.07-24.71Z"/>
    <path class="cls-1" d="M1482.51,584.98c-.71,0-1.3-.41-1.67-.72-.84-.7-1.21-1.47-1.13-2.29,0-.05.01-.09.02-.14l22.58-112.92-52.67,42.86c-4.06,3.3-6.4,6.36-6.95,9.08-.53,2.61.46,5.48,2.95,8.53.13.16,1.2,1.58-.66,3.1-.59.48-1.15.72-1.71.72s-1.1-.26-1.46-.7c-1.75-2.15-3-3.78-3.83-4.97l-4.94-6.32-5.3-6.26c-1.01-1.07-2.45-2.75-4.34-5.07-.27-.34-1.01-1.53.77-2.98.44-.36,1.04-.77,1.74-.77.52,0,1.01.23,1.33.63,2.6,3.19,5.23,4.81,7.83,4.81,2.8-.02,6.26-1.71,10.32-5.02l58.29-47.44c.21-5-.89-9.01-3.25-11.92-.13-.16-1.2-1.59.66-3.1.59-.48,1.15-.72,1.71-.72s1.1.25,1.46.7l3.68,4.78c.75,1.1,1.82,2.49,3.22,4.22,1.48,1.82,2.73,3.28,3.74,4.34,1.09,1.17,1.89,2.06,2.45,2.74.8.98,1.16,1.96,1.07,2.9-.04.42-.18,1.2-.83,3.32-.67,2.18-1.23,4.29-1.66,6.27l-19.21,92.6,48.88-39.77c4.07-3.31,6.47-6.36,7.12-9.06.62-2.58-.29-5.33-2.8-8.4-.29-.35-.42-.79-.37-1.25.08-.77.65-1.33,1.14-1.73.44-.36,1.04-.77,1.74-.77.52,0,1,.23,1.33.63l3.89,5.03c1.86,2.63,3.44,4.74,4.74,6.33,1.22,1.5,3,3.52,5.3,6.01l4.36,5.09c.34.42.49.91.44,1.4-.09.92-.83,1.53-1.08,1.73-.59.48-1.15.72-1.71.72s-1.1-.25-1.46-.7c-2.55-3.14-5.24-4.74-7.98-4.76-2.89,0-6.38,1.66-10.41,4.95l-66.22,53.89c-.32.26-.7.39-1.12.39Z"/>
    <path class="cls-1" d="M1570.46,529.33c-.5.41-.86.49-1.06.24-2.86-3.52-5.91-5.29-9.13-5.31-3.22-.02-7.01,1.74-11.37,5.28l-66.22,53.89c-.17.14-.46.03-.89-.32-.42-.35-.62-.68-.59-.98l22.95-114.76.34-2.15-55.79,45.4c-4.36,3.54-6.85,6.86-7.47,9.94-.62,3.08.46,6.34,3.26,9.78.2.25.06.58-.45.99s-.86.49-1.06.24c-1.71-2.09-2.96-3.72-3.76-4.88l-4.99-6.38-5.34-6.31c-1.04-1.11-2.48-2.79-4.32-5.05-.14-.17.05-.46.55-.86.5-.41.82-.53.96-.36,2.93,3.6,5.95,5.39,9.07,5.36,3.11-.03,6.85-1.81,11.2-5.36l58.81-47.86c.36-5.72-.83-10.26-3.55-13.61-.2-.25-.06-.58.45-.99.5-.41.86-.49,1.06-.24l3.66,4.75c.73,1.07,1.82,2.49,3.25,4.25,1.5,1.84,2.77,3.32,3.81,4.42,1.04,1.11,1.83,1.99,2.38,2.66.54.67.79,1.27.74,1.8-.06.53-.31,1.54-.77,3.03-.69,2.23-1.25,4.36-1.69,6.39l-20.07,96.75,52.15-42.44c4.36-3.54,6.9-6.83,7.63-9.87.73-3.03-.3-6.27-3.09-9.7-.14-.17.05-.46.55-.86.5-.41.82-.53.96-.36l3.86,5c1.88,2.65,3.46,4.77,4.76,6.36,1.23,1.51,3.01,3.53,5.36,6.08l4.32,5.05c.21.25.05.58-.45.99Z"/>
  </g>
  <g>
    <path class="cls-1" d="M484.36,1448.28c-.96-.03-1.88-.55-2.84-1.57l-46.3-49.64c-.29-.31-1.11-1.46.56-3.02.44-.42,1.05-.89,1.8-.89.48,0,.92.19,1.25.54,2.7,2.89,4.85,4.83,6.4,5.76.86.52,1.66.77,2.45.77.42,0,.83-.07,1.25-.21,1.41-.48,3.25-1.77,5.45-3.83l54.85-51.16c2.2-2.05,3.58-3.76,4.13-5.1.46-1.15.36-2.38-.31-3.79-.79-1.64-2.55-3.93-5.23-6.81-.29-.31-1.11-1.45.56-3.02.45-.42,1.05-.89,1.8-.89.48,0,.92.19,1.25.54l44.43,47.63c.76.82.9,1.6.88,2.12-.02.52-.21,1.3-1.03,2.06l-14.33,13.81c-.38.36-.86.55-1.35.55-.56,0-1.12-.24-1.65-.71-1.12-.98-1.09-2.11-.69-2.84.06-.11.14-.22.23-.32,3.69-3.85,5.65-7.87,5.82-11.94.17-4.08-1.33-7.78-4.61-11.29l-6.74-7.23c-2.45-2.63-4.46-4.38-5.96-5.2-.85-.46-1.67-.69-2.44-.69-.4,0-.8.06-1.19.18-1.32.41-2.98,1.54-4.94,3.37l-22.95,21.41,12.46,13.36c3.29,3.52,6.18,5.5,8.6,5.89.3.05.6.07.9.07,2.02,0,4.21-1.08,6.5-3.23.31-.29.72-.46,1.16-.46.81,0,1.42.54,1.86,1.02.43.46.92,1.09.89,1.87-.02.46-.21.88-.54,1.19l-9.72,8.84c-2.25,2.1-3.94,3.75-5.02,4.9l-5.62,5.47c-.34.32-.75.48-1.18.48-.81,0-1.42-.54-1.86-1.02-.34-.36-.56-.68-.71-.99-.41-.9-.09-1.66.35-2.07,3.13-2.92,4.68-5.74,4.61-8.37-.07-2.71-1.84-5.93-5.25-9.59l-12.13-13-26.15,24.39c-2.54,2.37-3.49,3.87-3.83,4.71-.42,1.03-.34,2.14.26,3.38.71,1.48,2.28,3.54,4.68,6.1l8.84,9.48c3.27,3.51,7.12,5.22,11.78,5.24h0c4.77,0,9.78-1.69,15-5.01.3-.23.67-.35,1.05-.35.57,0,1.11.27,1.61.8.34.37.61.78.79,1.23.33.86.16,1.7-.45,2.27-.05.05-.11.09-.17.14-5.55,3.87-11.09,8.38-16.47,13.39-.9.84-1.81,1.26-2.72,1.26-.02,0-.08,0-.1,0Z"/>
    <path class="cls-1" d="M502.39,1431.01c.22.24.38.49.49.76.1.27.08.48-.08.63-5.64,3.93-11.18,8.44-16.63,13.52-.63.59-1.22.88-1.75.86-.54-.02-1.13-.38-1.8-1.09l-46.3-49.64c-.15-.16.02-.46.49-.9.47-.44.78-.58.93-.43,2.8,3,5.04,5.01,6.73,6.02,1.68,1.01,3.34,1.24,4.96.69,1.62-.55,3.62-1.94,5.99-4.15l54.85-51.17c2.37-2.21,3.87-4.09,4.49-5.63.62-1.54.51-3.21-.34-5-.86-1.79-2.68-4.18-5.48-7.18-.15-.16.02-.46.49-.9.47-.44.78-.58.93-.43l44.42,47.62c.66.71.64,1.4-.07,2.06l-14.35,13.83c-.24.22-.56.15-.97-.21-.41-.36-.53-.69-.37-.99,3.96-4.14,6.04-8.44,6.24-12.91.19-4.46-1.48-8.59-5.01-12.38l-6.74-7.23c-2.58-2.76-4.69-4.59-6.34-5.49-1.65-.9-3.25-1.11-4.79-.62-1.55.48-3.38,1.72-5.52,3.71l-24.05,22.43,13.48,14.45c3.54,3.79,6.69,5.91,9.47,6.35,2.77.44,5.66-.74,8.66-3.54.16-.15.46.02.9.49.44.47.58.79.43.93l-9.71,8.83c-2.29,2.14-3.99,3.8-5.1,4.98l-5.58,5.42c-.16.15-.46-.02-.9-.49s-.59-.78-.43-.93c3.47-3.24,5.17-6.41,5.09-9.51-.09-3.1-1.97-6.62-5.65-10.57l-13.15-14.1-27.25,25.42c-2.21,2.06-3.61,3.81-4.19,5.24-.59,1.43-.49,2.96.3,4.6.78,1.63,2.43,3.79,4.93,6.48l8.84,9.48c3.54,3.79,7.82,5.7,12.87,5.72,5.04.02,10.34-1.74,15.89-5.29.16-.15.38-.06.68.25Z"/>
    <path class="cls-1" d="M568.44,1518.62c-.69,0-1.42-.3-2.31-.93-1.1-.79-1.67-1.72-1.69-2.75,0-.11,0-.21.03-.32l18.59-94.68c.93-4.27,1.09-7.62.5-9.98-.57-2.27-1.99-4.2-4.34-5.9-.59-.43-.88-1.13-.76-1.87.07-.42.26-.84.59-1.3.21-.3.87-1.2,1.96-1.2.39,0,.77.12,1.1.36l4.93,3.76c2.32,1.94,4.22,3.44,5.69,4.51,3.5,2.53,7.35,5.17,11.43,7.86l5.5,3.77c.62.45.91,1.15.79,1.89-.07.42-.26.84-.59,1.3-.21.3-.87,1.2-1.96,1.2-.39,0-.77-.12-1.1-.36-2.77-2-5.04-3.02-6.74-3.02-1.1,0-1.94.44-2.63,1.4-.43.6-1.06,1.87-1.6,4.48l-15.29,76.53,63.45-40.29c1.85-1.22,3.12-2.29,3.77-3.19,1-1.38,1.1-2.76.32-4.33-.92-1.85-3.05-3.99-6.34-6.36-.16-.12-1.57-1.22-.16-3.17.22-.3.87-1.2,1.96-1.2.39,0,.77.12,1.1.36l5.58,4.23c2.83,2.31,5.48,4.35,7.93,6.12,1.82,1.31,3.92,2.7,6.27,4.13l5.68,3.9c.62.45.91,1.15.79,1.89-.07.42-.26.84-.59,1.3-.57.8-1.23,1.2-1.96,1.2-.39,0-.77-.12-1.1-.36-2.7-1.95-5.59-2.94-8.58-2.95-3.03,0-6.56,1.28-10.49,3.79l-78.47,49.78c-.36.26-.79.4-1.26.4Z"/>
    <path class="cls-1" d="M669.08,1465.86c-.38.53-.7.69-.96.5-2.98-2.15-6.13-3.23-9.46-3.23-3.33,0-7.1,1.34-11.3,4.03l-78.52,49.81c-.34.29-.95.11-1.82-.52-.7-.51-1.05-1.03-1.07-1.57l18.59-94.68c.98-4.49,1.14-8.04.49-10.64-.65-2.6-2.29-4.85-4.92-6.75-.26-.19-.2-.55.17-1.07s.7-.69.96-.5l4.9,3.74c2.32,1.95,4.23,3.45,5.72,4.53,3.5,2.53,7.33,5.16,11.49,7.89l5.48,3.76c.26.19.2.55-.17,1.07s-.7.69-.96.5c-5.43-3.92-9.25-4.35-11.46-1.28-.76,1.05-1.38,2.74-1.85,5.06l-15.98,79.98,66.41-42.17c2.03-1.33,3.42-2.53,4.18-3.58,1.33-1.84,1.47-3.8.44-5.87-1.03-2.08-3.3-4.38-6.8-6.91-.26-.19-.2-.55.17-1.07.38-.53.7-.69.96-.5l5.55,4.21c2.85,2.33,5.5,4.37,7.95,6.14,1.84,1.33,3.96,2.73,6.36,4.19l5.61,3.85c.26.19.2.55-.17,1.07Z"/>
    <path class="cls-1" d="M716.49,1600.21c-.65,0-1.36-.18-2.17-.55l-61.72-28.25c-.41-.19-.73-.52-.89-.95-.27-.73,0-1.48.25-2.05.21-.45.75-1.64,1.98-1.64.22,0,.51.06.71.15,3.59,1.64,6.32,2.61,8.11,2.88.33.05.64.08.94.08,1.07,0,1.95-.32,2.7-.97,1.12-.99,2.33-2.87,3.58-5.61l31.21-68.21c1.25-2.73,1.88-4.85,1.87-6.29,0-1.23-.57-2.34-1.73-3.38-1.36-1.22-3.86-2.67-7.42-4.3-.55-.25-1.09-.87-.99-1.85.04-.34.15-.71.36-1.16.2-.45.75-1.64,1.98-1.64.22,0,.51.06.71.15l59.22,27.1c1.02.46,1.44,1.14,1.62,1.63.18.49.3,1.28-.17,2.29l-7.99,18.23c-.34.74-1.03,1.17-1.85,1.17-.31,0-.63-.06-.98-.18-1.41-.48-1.81-1.53-1.72-2.36.01-.13.05-.26.09-.38,1.94-4.96,2.22-9.42.83-13.25-1.39-3.84-4.2-6.68-8.57-8.68l-8.99-4.11c-3.27-1.5-5.79-2.35-7.5-2.53-.25-.03-.49-.04-.72-.04-1.13,0-2.05.31-2.82.95-1.06.88-2.17,2.56-3.28,5l-13.06,28.54,16.61,7.6c3.41,1.56,6.26,2.35,8.49,2.35.62,0,1.19-.06,1.71-.19,2.25-.53,4.15-2.46,5.64-5.74.28-.62.9-1,1.61-1,.41,0,.84.11,1.4.37.45.21.78.41,1.03.65.72.67.71,1.5.46,2.04l-5.62,11.88c-1.28,2.8-2.22,4.97-2.77,6.44l-3.12,7.2c-.3.65-.91,1.03-1.62,1.03-.41,0-.84-.11-1.4-.37-.57-.26-1.27-.66-1.54-1.39-.16-.43-.14-.89.05-1.3,1.78-3.89,2.14-7.08,1.07-9.5-1.1-2.48-3.96-4.79-8.5-6.86l-16.17-7.4-14.88,32.52c-1.45,3.16-1.75,4.91-1.74,5.81,0,1.11.5,2.1,1.53,3.02,1.22,1.1,3.46,2.4,6.65,3.86l11.78,5.39c2.3,1.05,4.61,1.58,6.88,1.58h0c1.99,0,4.01-.41,6.01-1.23,4.35-1.77,8.38-5.26,11.96-10.36.32-.53.89-.86,1.54-.86.34,0,.7.09,1.09.27.46.21.86.49,1.19.84.63.67.8,1.52.45,2.28-.03.07-.06.13-.1.19-3.66,5.7-7.07,11.97-10.12,18.65-.53,1.16-1.25,1.91-2.13,2.24-.33.12-.68.18-1.06.18Z"/>
    <path class="cls-1" d="M727.63,1577.2c.29.13.54.31.74.52.2.21.26.42.17.61-3.72,5.78-7.12,12.06-10.23,18.84-.36.79-.79,1.27-1.29,1.46-.5.19-1.19.08-2.08-.33l-61.72-28.25c-.2-.09-.16-.43.11-1.02.27-.59.5-.84.7-.75,3.73,1.71,6.57,2.71,8.51,3,1.94.3,3.56-.12,4.85-1.25,1.29-1.13,2.61-3.17,3.96-6.12l31.21-68.21c1.35-2.95,2.02-5.25,2.01-6.92-.01-1.67-.75-3.16-2.22-4.49-1.47-1.33-4.07-2.84-7.81-4.55-.2-.09-.16-.43.11-1.02.27-.59.5-.84.7-.75l59.22,27.1c.88.4,1.12,1.05.72,1.93l-8,18.25c-.13.29-.46.35-.97.18-.52-.17-.75-.43-.72-.77,2.09-5.34,2.37-10.11.85-14.31-1.52-4.2-4.64-7.38-9.35-9.54l-8.99-4.11c-3.44-1.57-6.09-2.46-7.96-2.66-1.87-.2-3.42.21-4.67,1.25-1.25,1.03-2.47,2.88-3.69,5.53l-13.69,29.9,17.97,8.23c4.71,2.16,8.44,2.91,11.17,2.26,2.73-.65,4.95-2.84,6.66-6.57.09-.2.43-.16,1.02.11s.84.5.75.7l-5.61,11.87c-1.3,2.85-2.24,5.03-2.82,6.55l-3.09,7.14c-.09.2-.43.16-1.02-.11-.59-.27-.84-.5-.75-.7,1.98-4.32,2.34-7.9,1.08-10.73-1.26-2.83-4.34-5.37-9.25-7.62l-17.53-8.02-15.51,33.88c-1.26,2.75-1.89,4.9-1.88,6.44,0,1.55.68,2.92,2.03,4.13,1.34,1.21,3.69,2.58,7.03,4.11l11.78,5.39c4.71,2.16,9.4,2.29,14.08.38,4.67-1.9,8.89-5.55,12.67-10.95.09-.2.33-.21.72-.02Z"/>
    <path class="cls-1" d="M863.47,1644.85c-1.09-.03-1.86-.41-2.3-1.11-.02-.04-.05-.08-.07-.12l-51.74-102.87-15.1,66.2c-1.17,5.1-1.13,8.95.12,11.43,1.19,2.38,3.74,4.03,7.58,4.91.49.11.91.4,1.17.83.49.79.28,1.72.21,2.02-.42,1.82-1.58,2.02-2.06,2.02-.11,0-.32-.02-.42-.05-2.72-.62-4.71-1.13-6.08-1.56l-7.78-1.94-8.03-1.67c-1.46-.22-3.62-.66-6.54-1.33-.42-.1-1.74-.58-1.23-2.82.39-1.69,1.27-2.05,1.95-2.05.11,0,.27.02.38.04,1.45.33,2.8.5,4.01.5,2.15,0,3.84-.51,5.17-1.57,2.15-1.71,3.83-5.17,5-10.28l16.72-73.27c-2.92-4.07-6.25-6.55-9.9-7.39-.2-.05-1.92-.51-1.39-2.85.42-1.82,1.58-2.02,2.06-2.02.11,0,.32.02.43.05l5.85,1.5c1.27.4,2.97.84,5.14,1.34,2.28.52,4.17.9,5.62,1.12,1.57.24,2.75.46,3.62.65,1.24.28,2.12.83,2.62,1.63.22.35.6,1.05,1.39,3.13.81,2.14,1.67,4.14,2.55,5.96l41.89,84.79,14.02-61.44c1.17-5.12,1.18-9,.04-11.52-1.1-2.41-3.51-4.01-7.38-4.9-.42-.1-1.74-.58-1.23-2.82.39-1.69,1.27-2.05,1.95-2.05.11,0,.27.02.38.04l6.16,1.57c3.09.93,5.64,1.62,7.63,2.07,1.87.43,4.52.92,7.88,1.47l6.57,1.33c.23.05,1.96.52,1.42,2.86-.42,1.82-1.58,2.02-2.06,2.02-.11,0-.32-.02-.43-.05-1.38-.32-2.68-.48-3.84-.48-2.18,0-3.94.54-5.37,1.64-2.26,1.74-3.99,5.21-5.16,10.31l-18.99,83.24c-.1.44-.52,1.46-2.26,1.46h-.14Z"/>
    <path class="cls-1" d="M900.26,1546.39c-.14.63-.37.91-.69.84-4.42-1.01-7.91-.53-10.46,1.43-2.55,1.97-4.46,5.69-5.7,11.16l-18.99,83.24c-.05.21-.35.31-.9.29-.55-.02-.91-.15-1.07-.41l-52.58-104.55-1.06-1.9-16,70.13c-1.25,5.48-1.17,9.62.24,12.43,1.41,2.81,4.27,4.71,8.59,5.7.32.07.4.42.26,1.06s-.37.91-.69.84c-2.63-.6-4.62-1.11-5.97-1.53l-7.86-1.96-8.09-1.68c-1.5-.23-3.67-.67-6.51-1.32-.21-.05-.24-.39-.1-1.02.14-.63.32-.92.53-.88,4.53,1.03,8.01.58,10.45-1.36s4.28-5.64,5.53-11.12l16.87-73.92c-3.24-4.73-6.97-7.57-11.18-8.53-.32-.07-.4-.42-.26-1.06.14-.63.37-.91.69-.84l5.81,1.49c1.24.39,2.97.84,5.18,1.35,2.31.53,4.22.91,5.72,1.14,1.5.23,2.67.44,3.51.63.84.19,1.4.52,1.69.97.28.45.7,1.41,1.26,2.86.83,2.18,1.7,4.21,2.6,6.08l43.76,88.58,14.96-65.55c1.25-5.47,1.23-9.63-.06-12.48-1.29-2.84-4.09-4.76-8.41-5.74-.21-.05-.24-.39-.1-1.02.14-.63.32-.92.53-.88l6.12,1.56c3.11.93,5.67,1.62,7.67,2.08,1.9.43,4.55.93,7.97,1.49l6.51,1.32c.32.07.4.42.26,1.06Z"/>
    <path class="cls-1" d="M996.89,1651.45c-3.59-.06-6.51-.16-8.66-.31l-12.58-.36-12.11-.03c-1.13.04-2.58.06-4.24.06-1.4,0-2.96-.01-4.69-.04-.43,0-1.82-.21-1.78-2.5.04-2.27,1.41-2.44,1.84-2.44.62,0,1.2.01,1.75.01,3.63,0,6.36-.21,8.12-.62,1.75-.41,2.9-1.17,3.53-2.34.72-1.33,1.1-3.52,1.15-6.5l1.22-75c.06-3.82-.42-5.55-.84-6.33-.51-.95-1.54-1.58-3.15-1.9-1.95-.39-5.35-.63-10.08-.7h-.61c-6.05,0-10.66,1.51-13.7,4.5-3.22,3.17-5.65,8.8-7.23,16.73-.08.52-.48,1.55-2.3,1.55-2.37-.04-2.46-1.56-2.46-1.86,0-.06,0-.11.01-.17.49-3.86,1.06-8.97,1.7-15.17.63-6.19.98-10.89,1.03-13.95.02-1.36.98-2.27,2.37-2.27,1.49.02,2.43.97,2.41,2.35,0,.23-.01.77,1.23,1.3,1.26.54,3.27.83,5.98.88,9.16.47,20.09.81,32.55,1.01,3.24.05,6.61.08,10.01.08s6.74-.03,10.2-.08l11.04.02c.44,0,.85.01,1.25.01,3.12,0,5.49-.21,7.04-.63,1.4-.38,2.25-1.07,2.66-2.19.31-1.03,1.21-1.67,2.38-1.67,1.64.03,2.35,1.15,2.33,2.19,0,.05,0,.1-.01.15-.37,3.08-.77,7.85-1.2,14.16-.42,6.31-.67,11.52-.73,15.47,0,.42-.2,1.78-2.39,1.78,0,0-.11,0-.12,0-.5,0-.88-.06-1.2-.18-.93-.33-1.25-1.09-1.24-1.69-.18-7.96-1.7-13.64-4.52-16.8-2.77-3.11-7.61-4.74-14.37-4.85-.79-.01-1.54-.02-2.26-.02-3.56,0-6.19.16-7.81.47-1.62.31-2.67.95-3.23,1.94-.45.8-1,2.56-1.06,6.4l-1.21,74.68c-.06,3.86.44,5.74.87,6.63.54,1.12,1.63,1.89,3.36,2.35,2.02.54,5.32.85,9.83.92.21,0,1.98.11,1.95,2.5-.04,2.37-1.79,2.44-1.99,2.44h-.03Z"/>
    <path class="cls-1" d="M941,1555.88c-3.46,3.4-6.01,9.25-7.66,17.54,0,.22-.3.32-.9.31-.59,0-.89-.12-.89-.34.49-3.88,1.06-8.95,1.7-15.2.64-6.25.99-10.95,1.04-14.08,0-.54.31-.8.9-.79.59,0,.89.29.88.82-.04,2.38,2.86,3.61,8.69,3.71,9.17.47,20.02.81,32.55,1.01,6.37.1,13.12.11,20.25,0l11.02.02c3.89.06,6.78-.16,8.68-.67,1.9-.51,3.13-1.57,3.7-3.18.11-.43.44-.64.98-.63.54,0,.81.23.8.66-.38,3.13-.78,7.87-1.2,14.24-.43,6.37-.67,11.55-.74,15.54,0,.22-.33.32-.98.31-.65,0-.97-.12-.97-.34-.19-8.43-1.82-14.37-4.9-17.82-3.08-3.45-8.23-5.24-15.47-5.35-4.86-.08-8.32.08-10.38.48-2.06.4-3.48,1.3-4.26,2.69-.78,1.39-1.2,3.76-1.25,7.11l-1.21,74.68c-.05,3.35.28,5.78,1.02,7.31.73,1.53,2.17,2.57,4.32,3.15,2.15.58,5.55.9,10.19.98.32,0,.48.33.47.98-.01.65-.18.97-.5.96-3.56-.06-6.43-.16-8.58-.3l-12.63-.37-12.15-.04c-2.16.07-5.13.08-8.91.02-.22,0-.32-.33-.31-.98.01-.65.12-.97.34-.97,4.64.08,8.05-.14,10.22-.64,2.17-.5,3.67-1.53,4.51-3.09.84-1.55,1.28-3.95,1.33-7.19l1.22-75c.05-3.35-.29-5.7-1.02-7.07-.73-1.36-2.13-2.25-4.17-2.66-2.05-.41-5.5-.66-10.36-.73-6.8-.11-11.93,1.54-15.39,4.94Z"/>
    <path class="cls-1" d="M1150.49,1633.19c-.91,0-1.58-.63-1.97-1.88-.69-2.19.58-2.78.99-2.91,3.77-1.19,6.44-2.3,7.95-3.31,1.26-.84,1.95-1.85,2.09-3.11.17-1.49-.2-3.69-1.11-6.57l-22.63-71.51c-.91-2.88-1.85-4.89-2.78-5.98-.78-.9-1.9-1.34-3.43-1.34-1.83,0-4.66.61-8.4,1.79-.15.05-.36.08-.51.08-.91,0-1.58-.63-1.97-1.89-.15-.48-.22-.85-.21-1.19.01-.99.63-1.53,1.21-1.71l7.8-2.3c4.35-1.15,7.84-2.14,10.42-2.96,3.86-1.22,7.67-2.6,11.33-4.09,4.6-1.69,7.67-2.77,9.44-3.33,7.54-2.39,14.92-3.6,21.94-3.6,3.1,0,6.2.24,9.2.7,9.82,1.53,18.33,5.26,25.29,11.08,6.97,5.83,11.96,13.4,14.84,22.49,3.23,10.21,3.7,20.14,1.38,29.52-2.31,9.38-6.97,17.63-13.85,24.5-6.85,6.85-15.23,11.88-24.89,14.94-3,.95-6.57,1.91-10.61,2.84-1.38.33-3.19.79-5.54,1.42-2.25.6-4.71,1.32-7.32,2.15l-10.43,3.47c-1.77.67-4.38,1.56-7.7,2.61-.15.05-.36.08-.51.08ZM1174.3,1523.69c-4.08,0-8.32.68-12.59,2.04-4.3,1.36-7.58,2.67-9.74,3.9-1.94,1.1-3.14,2.4-3.67,3.95-.54,1.59-.36,3.79.51,6.55l22,69.51c.9,2.85,2,4.96,3.26,6.25,1.16,1.2,2.85,1.83,5.17,1.92.18,0,.36.01.54.01,2.45,0,5.69-.63,9.63-1.88,7.96-2.52,14.58-6.46,19.67-11.73,5.06-5.23,8.31-11.7,9.67-19.23,1.37-7.59.59-16.1-2.32-25.29-2.76-8.7-6.96-16.18-12.5-22.23-5.5-6-11.99-10.13-19.31-12.28-3.36-.98-6.83-1.48-10.32-1.48Z"/>
    <path class="cls-1" d="M1181.65,1622.01c-1.48.35-3.33.83-5.58,1.43-2.25.6-4.71,1.32-7.39,2.17l-10.45,3.48c-1.82.69-4.38,1.56-7.67,2.6-.21.07-.41-.21-.6-.83-.2-.62-.19-.96.02-1.02,3.91-1.24,6.69-2.4,8.33-3.49,1.64-1.08,2.56-2.48,2.75-4.19.2-1.7-.19-4.1-1.17-7.19l-22.63-71.51c-.98-3.09-2-5.25-3.08-6.5-1.07-1.25-2.6-1.87-4.58-1.86-1.98,0-4.93.63-8.84,1.86-.21.07-.41-.21-.6-.83-.2-.62-.19-.96.02-1.02l7.77-2.29c4.39-1.16,7.87-2.15,10.45-2.97,3.91-1.24,7.72-2.61,11.44-4.13,4.46-1.64,7.57-2.74,9.32-3.29,10.71-3.39,20.86-4.33,30.45-2.84,9.59,1.5,17.78,5.08,24.56,10.75,6.78,5.67,11.57,12.93,14.37,21.79,3.16,9.99,3.61,19.56,1.36,28.71-2.26,9.16-6.74,17.09-13.45,23.8-6.71,6.71-14.81,11.57-24.28,14.57-2.99.95-6.49,1.88-10.5,2.81ZM1210.16,1605.25c5.29-5.47,8.65-12.14,10.07-20.01,1.42-7.87.63-16.54-2.37-26.01-2.84-8.96-7.11-16.55-12.82-22.79-5.71-6.23-12.38-10.47-19.99-12.7-7.62-2.23-15.55-2.05-23.78.56-4.43,1.4-7.77,2.74-10.03,4.02-2.26,1.28-3.71,2.87-4.35,4.78-.64,1.9-.48,4.4.5,7.49l22,69.51c.98,3.09,2.18,5.37,3.61,6.84,1.43,1.48,3.49,2.27,6.19,2.37,2.7.11,6.26-.54,10.69-1.94,8.24-2.61,15-6.64,20.29-12.12Z"/>
    <path class="cls-1" d="M1296.68,1579.68c-1.15,0-1.75-1.08-1.97-1.49-.31-.55-.63-1.28-.41-2.03.13-.44.41-.8.81-1.02,3.45-1.92,5.85-3.54,7.13-4.82,1.07-1.07,1.54-2.2,1.43-3.46-.13-1.49-.93-3.58-2.39-6.21l-36.4-65.59c-1.81-3.27-3.15-4.65-3.95-5.24-.7-.51-1.5-.76-2.45-.76-.41,0-.84.05-1.3.14-1.79.37-4.43,1.52-7.87,3.43-.22.12-.57.21-.82.21-1.15,0-1.75-1.08-1.97-1.49-1.11-2,.02-2.84.39-3.04l56.95-31.6c.53-.29,1.05-.44,1.57-.44.59,0,1.69.21,2.46,1.59l9.94,17.25c.43.76.44,1.96-.88,2.87-.5.35-1.02.53-1.52.53-.52,0-1.01-.19-1.4-.55-.1-.09-.18-.19-.25-.3-2.85-4.51-6.27-7.38-10.18-8.53-1.29-.38-2.61-.57-3.92-.57-2.64,0-5.38.78-8.15,2.32l-8.64,4.79c-3.14,1.74-5.33,3.27-6.49,4.53-.99,1.08-1.44,2.19-1.37,3.4.08,1.38.78,3.27,2.08,5.61l15.23,27.44,15.97-8.86c4.21-2.34,6.83-4.67,7.79-6.93.9-2.13.47-4.8-1.27-7.95-.21-.37-.73-1.68,1.28-2.79.6-.33,1.07-.48,1.52-.48.65,0,1.23.33,1.53.88l6.23,11.56c1.5,2.69,2.69,4.74,3.54,6.05l3.95,6.78c.22.4.74,1.71-1.26,2.82-.6.33-1.07.48-1.52.48-.65,0-1.22-.33-1.53-.88-2.08-3.74-4.43-5.93-7.01-6.5-.5-.11-1.05-.17-1.62-.17-2.42,0-5.43.99-8.95,2.94l-15.55,8.63,17.35,31.27c1.69,3.04,2.92,4.32,3.65,4.85.63.46,1.35.69,2.19.69.36,0,.75-.04,1.16-.13,1.61-.33,3.98-1.36,7.05-3.07l11.33-6.29c4.19-2.33,6.79-5.65,7.93-10.16,1.16-4.56.74-9.88-1.25-15.79-.25-.64-.25-1.7,1.08-2.44.44-.25.91-.4,1.39-.47.13-.02.23-.02.33-.02.77,0,1.41.37,1.77,1,.04.06.07.13.09.2,2.42,6.33,5.45,12.79,9.01,19.21.62,1.11.8,2.14.54,3.04-.26.92-.99,1.7-2.21,2.38l-59.36,32.94c-.22.12-.57.21-.82.21Z"/>
    <path class="cls-1" d="M1346.67,1522.49c.28-.16.57-.25.86-.29.29-.04.48.04.59.23,2.45,6.42,5.48,12.89,9.1,19.41.42.76.55,1.39.41,1.9-.15.52-.65,1.01-1.5,1.48l-59.35,32.94c-.19.11-.44-.13-.75-.69s-.38-.9-.19-1.01c3.59-1.99,6.08-3.68,7.47-5.07,1.39-1.39,2.01-2.94,1.87-4.65-.15-1.71-1-3.98-2.58-6.81l-36.4-65.59c-1.57-2.83-3.03-4.74-4.38-5.72-1.35-.98-2.99-1.27-4.93-.88-1.94.4-4.71,1.59-8.29,3.58-.19.11-.44-.13-.75-.69-.31-.57-.38-.9-.19-1.01l56.95-31.6c.85-.47,1.51-.28,1.98.57l9.95,17.27c.16.28.01.58-.43.89-.45.31-.8.35-1.05.12-3.06-4.85-6.73-7.9-11.02-9.17-4.29-1.26-8.69-.64-13.23,1.87l-8.64,4.79c-3.31,1.83-5.59,3.45-6.86,4.83-1.27,1.38-1.86,2.88-1.76,4.5.09,1.62.85,3.7,2.26,6.25l15.96,28.76,17.28-9.59c4.53-2.52,7.35-5.06,8.45-7.65,1.1-2.58.65-5.67-1.34-9.26-.1-.19.13-.44.69-.75.57-.31.9-.38,1.01-.19l6.23,11.55c1.52,2.74,2.72,4.79,3.6,6.15l3.92,6.72c.11.19-.13.44-.69.76s-.9.38-1.01.19c-2.31-4.15-4.97-6.57-8-7.23-3.03-.67-6.9.31-11.62,2.93l-16.86,9.35,18.08,32.58c1.47,2.65,2.83,4.42,4.07,5.34,1.25.91,2.76,1.19,4.53.82,1.77-.36,4.26-1.44,7.47-3.22l11.33-6.29c4.53-2.51,7.42-6.21,8.66-11.1,1.24-4.89.81-10.45-1.3-16.7-.1-.19.03-.39.41-.6Z"/>
    <path class="cls-1" d="M1409.37,1505.34c-.68,0-1.28-.16-1.8-.46-.51-.3-1.1-.78-1.82-1.47l-15.47-15.76c-.42-.35-.67-.82-.73-1.34-.07-.63.15-1.25.66-1.84.68-.79,1.39-.96,1.86-.96s.91.15,1.3.44c6.05,4.81,12.61,7.92,19.53,9.27,1.5.29,3,.44,4.44.44,5,0,9.77-1.81,14.17-5.37,3.91-3.17,6.37-6.95,7.31-11.24.92-4.16-.52-8.63-4.28-13.27-2.87-3.54-6.17-6-9.81-7.31-3.41-1.22-6.83-1.84-10.17-1.84-.31,0-.63,0-.94.02-3.77.13-8.73.65-14.74,1.53-6.04.84-11.01,1.31-14.78,1.42-.28,0-.57.01-.85.01-3.63,0-7.32-.68-10.97-2.03-4.01-1.48-7.6-4.16-10.68-7.97-3.59-4.44-5.52-9.26-5.72-14.35-.2-5.03.96-9.9,3.46-14.49,2.46-4.51,5.82-8.51,9.98-11.88,5.07-4.11,11-7.19,17.65-9.17.74-.27,1.45-.41,2.1-.41,1.27,0,2.36.52,3.16,1.5l12.55,13.69c.71.88.85,2.2-.38,3.19-.51.41-1.05.62-1.62.62-.5,0-.98-.17-1.39-.48-.04-.03-.07-.05-.1-.08-4-3.63-8.9-6.12-14.58-7.41-1.27-.29-2.54-.43-3.78-.43-4.13,0-8.24,1.63-12.19,4.83-4.38,3.55-6.55,7.3-6.64,11.47-.09,4.27,1.35,8.18,4.41,11.96,2.45,3.03,5.35,5.09,8.62,6.14,2.79.9,5.65,1.35,8.49,1.35h0c.59,0,1.17-.02,1.76-.06,3.58-.23,8.41-.76,14.34-1.58,6.67-.92,11.98-1.48,15.8-1.65.46-.02.93-.03,1.4-.03,3.53,0,7.16.62,10.78,1.85,4.19,1.42,7.94,4.16,11.17,8.14,3.42,4.23,5.5,8.99,6.17,14.15.67,5.17-.25,10.47-2.73,15.76-2.46,5.23-6.55,10.19-12.16,14.73-6.63,5.37-14.03,8.83-21.99,10.28-.3.04-.54.06-.76.06Z"/>
    <path class="cls-1" d="M1376.65,1443.77c3.57,1.14,7.17,1.6,10.8,1.36,3.63-.23,8.45-.76,14.45-1.59,6.62-.92,11.85-1.46,15.67-1.64s7.69.41,11.62,1.74c3.93,1.33,7.42,3.89,10.48,7.67,3.26,4.03,5.21,8.5,5.85,13.4.64,4.91-.23,9.88-2.6,14.93-2.37,5.05-6.29,9.78-11.74,14.2-6.46,5.24-13.57,8.56-21.32,9.97-.62.09-1.13.02-1.53-.22-.4-.23-.91-.65-1.54-1.26l-15.5-15.79c-.36-.27-.34-.63.06-1.09.39-.46.77-.55,1.12-.29,6.24,4.96,12.95,8.14,20.14,9.54,7.19,1.41,13.8-.34,19.84-5.23,4.2-3.4,6.81-7.42,7.83-12.08,1.03-4.65-.5-9.5-4.58-14.53-3.06-3.78-6.55-6.37-10.47-7.78-3.92-1.41-7.81-2.05-11.66-1.91-3.85.13-8.82.65-14.91,1.55-6,.83-10.87,1.3-14.6,1.41-3.74.11-7.49-.53-11.26-1.93-3.77-1.39-7.12-3.89-10.04-7.5-3.4-4.2-5.19-8.68-5.38-13.47-.19-4.78.9-9.35,3.28-13.71,2.38-4.36,5.58-8.17,9.61-11.43,4.95-4.01,10.68-6.98,17.18-8.91,1.6-.6,2.81-.4,3.62.61l12.61,13.76c.27.34.2.67-.22,1.01-.42.34-.81.38-1.16.11-4.21-3.82-9.29-6.41-15.25-7.76-5.96-1.35-11.71.21-17.25,4.7-4.7,3.81-7.1,8.01-7.2,12.61-.1,4.6,1.48,8.91,4.75,12.94,2.65,3.27,5.76,5.48,9.33,6.62Z"/>
    <path class="cls-1" d="M1496.01,1433.72c-.59,0-1.18-.27-1.78-.82-.42-.38-.69-.76-.84-1.15-.27-.7-.13-1.44.36-1.99,2.67-2.91,4.43-5.21,5.24-6.83.68-1.35.76-2.58.26-3.74-.59-1.37-2.02-3.1-4.24-5.13l-55.32-50.65c-2.21-2.03-4.03-3.28-5.41-3.72-.38-.12-.78-.18-1.17-.18-.81,0-1.68.26-2.58.79-1.58.92-3.72,2.85-6.37,5.74-.36.4-.85.61-1.39.61-.59,0-1.18-.27-1.78-.82-1.77-1.62-.62-2.98-.48-3.13l5.5-5.77c3.19-3.17,5.8-5.85,7.77-8,2.19-2.39,4.75-5.34,7.59-8.77l5.05-5.76c.39-.42.88-.64,1.41-.64.59,0,1.17.27,1.78.82,1.77,1.62.62,2.98.48,3.13-2.58,2.81-4.25,5.09-4.98,6.75-.63,1.45-.69,2.73-.17,3.92.59,1.37,2.02,3.1,4.24,5.13l55.08,50.44c2.24,2.05,4.08,3.34,5.47,3.85.41.15.82.22,1.23.22.76,0,1.54-.25,2.37-.77,1.55-.95,3.68-2.9,6.35-5.82.36-.4.85-.61,1.39-.61.59,0,1.18.27,1.78.82.23.21.94.86.98,1.78.02.5-.15.98-.5,1.35-2.2,2.41-4.03,4.32-5.43,5.69l-7.84,8.33-7.4,8.32c-1.2,1.47-2.98,3.49-5.26,5.98-.36.4-.85.61-1.39.61Z"/>
    <path class="cls-1" d="M1509.21,1409.22c1.59.58,3.23.36,4.9-.67,1.68-1.03,3.9-3.06,6.67-6.08.22-.24.57-.14,1.04.3.48.44.61.78.39,1.01-2.19,2.39-3.98,4.27-5.37,5.63l-7.89,8.37-7.43,8.35c-1.23,1.51-2.98,3.5-5.24,5.96-.22.24-.57.14-1.04-.3s-.61-.78-.39-1.01c2.77-3.03,4.6-5.42,5.47-7.18.88-1.76.98-3.42.3-5-.68-1.57-2.22-3.46-4.61-5.65l-55.32-50.65c-2.39-2.19-4.38-3.53-5.97-4.04-1.59-.5-3.24-.26-4.96.73-1.71,1-3.96,3-6.73,6.03-.22.24-.57.14-1.04-.3-.48-.44-.61-.78-.39-1.02l5.48-5.75c3.22-3.2,5.82-5.88,7.79-8.03,2.19-2.39,4.74-5.33,7.64-8.82l5.02-5.72c.22-.24.57-.14,1.05.3.48.44.61.78.39,1.01-2.7,2.95-4.45,5.34-5.25,7.17-.8,1.83-.86,3.54-.18,5.11.68,1.58,2.22,3.46,4.61,5.64l55.08,50.44c2.39,2.19,4.38,3.57,5.97,4.15Z"/>
    <path class="cls-1" d="M1544.4,1342.6c-.75,0-1.51-.02-2.27-.05-9.55-.43-18.64-3.34-27.04-8.67-9.06-5.75-15.63-13.18-19.51-22.08-3.87-8.88-5.11-18.6-3.69-28.88,1.41-10.22,5.28-20.38,11.5-30.18,3.1-4.89,6.55-9.29,10.24-13.06,3.71-3.79,7.45-6.63,11.09-8.42.96-.57,1.67-.82,2.3-.82.18,0,.35.02.51.06.35.09.91.29,2.57,1.16l17.16,8.59s.09.05.13.08c.34.22,1.41,1.08.65,2.93-.58,1.45-1.68,1.6-2.12,1.6-.24,0-.48-.04-.72-.12-4.44-1.33-8.69-2.01-12.6-2.01-10.92,0-19.47,5.11-26.14,15.62-4.41,6.95-6.86,14.3-7.28,21.85-.42,7.53,1.25,14.81,4.96,21.65,3.72,6.86,9.5,12.8,17.18,17.68,7.53,4.78,15.71,7.76,24.31,8.88,2.03.26,4.07.4,6.06.4,6.42,0,12.77-1.38,18.87-4.1,7.98-3.55,14.83-9.78,20.37-18.52,3.88-6.11,5.46-11.15,4.71-14.98-.74-3.79-4.02-7.56-9.74-11.19-4.59-2.91-7.97-4.67-10.06-5.22-.46-.12-.92-.19-1.37-.19-1.24,0-2.4.48-3.56,1.46-1.82,1.55-4.33,4.84-7.47,9.79-.46.73-1.19,1.14-2,1.14-.55,0-1.1-.18-1.69-.55-.51-.32-.9-.75-1.16-1.28-.51-1.03-.2-1.8.04-2.17,4.96-6.82,8.86-12.45,11.62-16.8,2.63-4.14,5.37-8.76,8.14-13.73.27-.43.81-1.03,1.92-1.03.67.02,1.17.16,1.58.42,1.54.97,1.6,2.39.99,3.36-1.76,2.56-1.93,3.8-1.88,4.33.05.5.44,1.6,2.49,3.32,1.82,1.52,5.38,3.97,10.59,7.28,4.02,2.55,6.98,4.21,8.81,4.95,2.7,1.09,3.46,1.5,3.83,1.73.9.57,1.42,1.2,1.58,1.91.13.58.05,1.28-.26,2.33-4.75,13-9.75,23.64-14.88,31.72-6.47,10.2-14.27,17.9-23.17,22.89-8.23,4.61-16.84,6.94-25.61,6.94Z"/>
    <path class="cls-1" d="M1569.28,1334.34c-8.73,4.89-17.76,7.12-27.08,6.7-9.33-.42-18.1-3.23-26.3-8.44-8.85-5.61-15.16-12.75-18.94-21.41-3.78-8.66-4.97-18.02-3.58-28.08,1.39-10.05,5.15-19.91,11.28-29.58,3.07-4.83,6.42-9.1,10.05-12.81,3.63-3.71,7.21-6.42,10.74-8.15.83-.5,1.41-.71,1.74-.62.33.08,1.07.43,2.23,1.03l17.18,8.6c.27.17.3.54.07,1.1-.23.56-.55.77-.97.63-17.62-5.29-31.11-.55-40.49,14.22-4.57,7.21-7.07,14.73-7.51,22.58-.44,7.85,1.28,15.33,5.14,22.45,3.86,7.12,9.76,13.19,17.7,18.23,7.75,4.92,16.06,7.95,24.93,9.1,8.86,1.15,17.44-.12,25.73-3.82,8.29-3.69,15.3-10.05,21.03-19.08,4.11-6.47,5.75-11.83,4.92-16.07-.83-4.23-4.3-8.29-10.41-12.17-4.74-3.01-8.24-4.81-10.48-5.4-2.24-.59-4.34-.07-6.28,1.58-1.94,1.65-4.53,5.03-7.77,10.13-.35.55-.88.59-1.62.13-.27-.17-.48-.4-.62-.68-.14-.28-.16-.51-.04-.7,4.97-6.82,8.84-12.42,11.62-16.8,2.66-4.19,5.39-8.8,8.18-13.8.12-.18.33-.27.65-.26.32,0,.56.07.75.19.64.41.81.84.52,1.29-1.54,2.22-2.24,3.98-2.1,5.28.13,1.3,1.14,2.74,3.02,4.31,1.88,1.58,5.46,4.04,10.75,7.4,4.1,2.6,7.12,4.3,9.06,5.08,1.94.78,3.13,1.32,3.59,1.6.55.35.85.67.92.97.07.3-.01.83-.23,1.58-4.71,12.87-9.61,23.32-14.7,31.35-6.37,10.03-13.91,17.49-22.64,22.38Z"/>
    <path class="cls-1" d="M1638.21,1224.73c-.35,0-.74-.08-1.23-.25-2.16-.76-1.87-2.14-1.72-2.54,1.38-3.91,1.38-7.02,0-9.24-1.45-2.33-4.69-4.4-9.64-6.15l-70.87-25.02c-4.38,2.43-7.23,5.45-8.48,8.99-.28.78-.99,1.27-1.86,1.27-.34,0-.71-.07-1.13-.22-.53-.19-.93-.43-1.23-.73-.52-.54-.69-1.28-.44-1.97l2.16-5.63c.55-1.22,1.18-2.86,1.92-4.95.78-2.21,1.37-4.04,1.76-5.45.43-1.55.78-2.7,1.07-3.52.42-1.19,1.07-2.01,1.92-2.42.38-.18,1.12-.47,3.27-1.02,2.21-.56,4.3-1.18,6.21-1.85l89.04-31.87-59.42-20.98c-3.33-1.17-6.18-1.77-8.49-1.77-1.11,0-2.1.14-2.95.41-2.52.81-4.39,3.03-5.71,6.77-.25.71-.9,1.15-1.71,1.15-.35,0-.74-.08-1.23-.25-2.16-.76-1.87-2.14-1.72-2.54l2.27-5.94c1.28-2.98,2.26-5.44,2.94-7.34.64-1.81,1.43-4.39,2.36-7.66l2.08-6.37c.29-.82,1-1.3,1.87-1.3.34,0,.71.07,1.13.22.3.1,1.2.42,1.6,1.26.22.45.24.96.07,1.44-1.35,3.81-1.32,6.94.1,9.29,1.47,2.44,4.71,4.56,9.65,6.31l80.51,28.43c.44.15,1.43.71,1.17,2.55-.16,1.07-.62,1.8-1.37,2.16-.04.02-.09.04-.13.06l-108.13,39.58,64.03,22.61c3.19,1.13,5.94,1.7,8.17,1.7,1.21,0,2.28-.17,3.19-.5,2.5-.91,4.43-3.25,5.75-6.97.27-.78.99-1.27,1.86-1.27.34,0,.71.07,1.13.22,2.26.8,1.74,2.5,1.67,2.69-.93,2.63-1.66,4.54-2.25,5.86l-2.82,7.5-2.58,7.79c-.39,1.42-1.09,3.58-2.07,6.35-.25.71-.9,1.15-1.71,1.15Z"/>
    <path class="cls-1" d="M1579.86,1087.95c.61.22.86.48.75.78-1.51,4.28-1.44,7.8.22,10.56,1.66,2.76,5.14,5.08,10.43,6.95l80.51,28.43c.2.07.27.38.19.93-.08.55-.26.88-.53,1.02l-109.9,40.23-2.01.83,67.83,23.95c5.3,1.87,9.42,2.27,12.38,1.19,2.96-1.07,5.17-3.7,6.65-7.88.11-.31.47-.35,1.08-.13s.86.48.76.78c-.9,2.55-1.63,4.46-2.2,5.75l-2.85,7.58-2.6,7.85c-.4,1.46-1.09,3.57-2.06,6.32-.07.21-.41.2-1.02-.02s-.88-.42-.81-.63c1.54-4.38,1.5-7.89-.15-10.53-1.64-2.64-5.11-4.9-10.41-6.77l-71.49-25.24c-5.07,2.68-8.32,6.05-9.76,10.13-.11.31-.47.35-1.08.13-.61-.22-.86-.48-.75-.78l2.15-5.6c.53-1.19,1.18-2.85,1.93-4.99.79-2.24,1.39-4.09,1.79-5.55.4-1.46.75-2.6,1.03-3.42.29-.81.67-1.34,1.15-1.57.48-.23,1.48-.54,2.99-.92,2.26-.58,4.38-1.2,6.34-1.89l93.02-33.3-63.4-22.39c-5.29-1.87-9.43-2.32-12.4-1.37-2.97.96-5.2,3.52-6.67,7.7-.07.21-.41.2-1.02-.02-.61-.22-.88-.42-.81-.63l2.26-5.9c1.28-2.98,2.26-5.44,2.95-7.38.65-1.83,1.45-4.41,2.39-7.75l2.06-6.32c.11-.31.47-.35,1.08-.13Z"/>
    <path class="cls-1" d="M1684.48,1070.91c-.19,0-.42-.02-.69-.05-.49-.07-.86-.17-1.17-.32-.89-.43-1.12-1.23-1.04-1.82.53-3.91.67-6.81.41-8.6-.22-1.5-.84-2.55-1.92-3.22-1.27-.79-3.43-1.4-6.41-1.8l-74.33-10.08c-1.43-.19-2.7-.29-3.78-.29-1.14,0-2.08.11-2.78.33-1.18.37-2.08,1.23-2.74,2.63-.77,1.65-1.43,4.46-1.96,8.35-.1.7-.68,1.53-2.01,1.53-.19,0-.42-.02-.68-.05-.49-.07-.87-.17-1.17-.32-.89-.43-1.12-1.23-1.03-1.82l8.76-64.54c.21-1.59,1.29-2.57,2.8-2.57.17,0,.34.01.53.04l19.77,2.35c.87.12,1.83.82,1.77,2.42-.05,1.49-.94,2.18-1.76,2.33-.09.02-.18.02-.27.02-.04,0-.08,0-.12,0-.78-.06-1.54-.09-2.28-.09-4.28,0-7.86,1.06-10.65,3.14-3.27,2.45-5.18,5.96-5.82,10.72l-1.33,9.79c-.48,3.56-.57,6.22-.25,7.91.27,1.44.9,2.47,1.9,3.13,1.15.76,3.08,1.33,5.74,1.69l31.1,4.22,2.46-18.1c.65-4.77.35-8.27-.89-10.39-1.16-2-3.56-3.25-7.13-3.74-.43-.06-1.78-.42-1.48-2.69.26-1.93,1.31-2.22,1.91-2.22.07,0,.16,0,.23.02l13,1.93c3.05.41,5.4.68,6.97.79l7.8.89c.63.09,1.33.52,1.51,1.49.06.33.06.72,0,1.21-.26,1.93-1.31,2.22-1.91,2.22-.07,0-.16,0-.23-.02-1.06-.14-2.06-.22-2.98-.22-2.76,0-4.92.65-6.42,1.94-2.05,1.77-3.43,5.18-4.1,10.13l-2.39,17.62,35.44,4.81c1.34.18,2.53.27,3.54.27h0c1.05,0,1.9-.1,2.53-.29,1.07-.33,1.87-1.09,2.45-2.34.7-1.49,1.29-4.01,1.77-7.49l1.74-12.84c.64-4.75-.47-8.82-3.4-12.44-2.96-3.66-7.47-6.5-13.4-8.45-.66-.18-1.52-.82-1.31-2.33.07-.5.22-.97.46-1.39.4-.71,1.05-1.11,1.78-1.11.07,0,.2,0,.27.02.07,0,.14.02.21.04,6.51,1.85,13.5,3.29,20.79,4.28,1.26.17,2.19.64,2.76,1.39.58.76.77,1.81.58,3.19l-9.13,67.26c-.1.7-.68,1.53-2.01,1.53Z"/>
    <path class="cls-1" d="M1670.26,995.9c.04-.32.14-.61.28-.86.14-.25.32-.37.54-.34,6.61,1.88,13.61,3.32,20.99,4.32.86.12,1.45.39,1.77.81.33.43.42,1.12.29,2.08l-9.13,67.26c-.03.22-.37.28-1.01.19-.64-.09-.95-.24-.92-.45.55-4.07.69-7.07.41-9.02-.28-1.94-1.15-3.37-2.61-4.28-1.46-.91-3.79-1.58-7-2.01l-74.33-10.08c-3.21-.44-5.61-.41-7.21.09-1.59.49-2.81,1.64-3.65,3.43-.84,1.79-1.54,4.72-2.09,8.79-.03.22-.36.28-1.01.19s-.95-.24-.92-.45l8.76-64.54c.13-.96.68-1.38,1.64-1.25l19.79,2.36c.32.04.47.34.45.88-.02.54-.2.85-.53.91-5.71-.45-10.36.67-13.94,3.34-3.58,2.68-5.71,6.58-6.41,11.72l-1.33,9.79c-.51,3.75-.59,6.54-.24,8.39.35,1.85,1.2,3.21,2.55,4.11,1.35.89,3.47,1.53,6.36,1.93l32.59,4.42,2.66-19.58c.7-5.14.34-8.92-1.08-11.35-1.41-2.42-4.15-3.92-8.22-4.47-.21-.03-.28-.37-.19-1.01.09-.64.24-.95.45-.92l12.98,1.92c3.11.42,5.47.69,7.08.8l7.73.88c.21.03.28.37.19,1.01-.09.64-.24.95-.45.92-4.71-.64-8.24.05-10.58,2.08-2.34,2.03-3.88,5.71-4.61,11.06l-2.59,19.1,36.92,5.01c3,.41,5.24.38,6.71-.07,1.48-.45,2.6-1.5,3.37-3.14.77-1.64,1.4-4.28,1.89-7.92l1.74-12.84c.7-5.14-.54-9.66-3.72-13.58-3.17-3.92-7.89-6.9-14.15-8.95-.21-.03-.29-.26-.23-.69Z"/>
    <path class="cls-1" d="M1597.69,948.14c-1.62,0-2.25-.99-2.3-1.84l-.31-7.96c-.05-4.5-.16-8.18-.33-10.99-.14-2.35-.33-4.55-.55-6.54-.23-2.02-.44-3.74-.63-5.12-.56-3.99-.95-7.66-1.14-10.92-.53-8.84,1.13-15.92,4.93-21.06,3.87-5.22,9.33-8.08,16.22-8.49.61-.04,1.22-.05,1.83-.05,5.42,0,10.51,1.49,15.14,4.44,4.62,2.94,8.48,6.93,11.51,11.86,11.79-9.32,21.14-17.24,27.82-23.56,6.88-6.51,11.82-12.27,14.68-17.12,2.78-4.71,4.06-9.28,3.8-13.59-.03-.45.12-.88.42-1.23.52-.58,1.3-.7,1.93-.74.13,0,.25-.01.36-.01,2.01,0,2.2,1.4,2.21,1.69l1.25,20.86c.13,2.21-1.22,6.16-12.98,17.19-8.36,7.84-19.99,17.33-34.6,28.23.69,2.67,1.12,5.46,1.29,8.32.01.24.05.91-.02,5.8l35.09-2.1c3.89-.23,5.76-.81,6.64-1.25,1.06-.53,1.73-1.5,2.05-2.97.39-1.77.48-4.66.24-8.61-.01-.2-.05-1.99,2.35-2.13.1,0,.2,0,.29,0,1.62,0,2.25,1,2.3,1.85.2,3.36.31,6.05.32,8.01l.5,11.11.82,10.94c.22,1.9.44,4.62.66,8.26.03.45-.12.89-.42,1.23-.52.58-1.3.7-1.93.74-.13,0-.25.01-.36.01-2.01,0-2.2-1.41-2.21-1.69-.24-3.95-.66-6.84-1.27-8.61-.51-1.48-1.33-2.41-2.5-2.86-1.04-.39-2.57-.59-4.53-.59-.66,0-1.36.02-2.11.07l-74.88,4.48c-3.02.18-5.19.6-6.48,1.24-1.07.54-1.77,1.52-2.14,3.01-.44,1.77-.54,4.66-.31,8.57.01.21.04,1.99-2.35,2.13-.1,0-.2,0-.29,0ZM1621.66,888.84c-.82,0-1.69.03-2.56.08-7.95.48-13.58,2.55-16.74,6.15-3.16,3.62-4.56,8.83-4.16,15.5.22,3.74,1.03,6.37,2.32,7.6.73.7,2.42,1.52,6.3,1.52h0c.61,0,1.26-.02,1.94-.06l32.66-1.95c.16-2.35.15-5.05-.03-8.07-.48-7.95-2.52-13.56-6.07-16.66-3.12-2.73-7.72-4.11-13.67-4.11Z"/>
    <path class="cls-1" d="M1690.8,836.71c.65-.04.98.05.99.27l1.25,20.86c.16,2.7-4.01,8.03-12.51,16-8.5,7.97-20.26,17.55-35.29,28.73.82,2.87,1.33,5.87,1.51,9,.04.65.02,3.08-.05,7.31l36.71-2.2c3.34-.2,5.75-.67,7.22-1.41,1.47-.74,2.42-2.06,2.84-3.98.43-1.92.52-4.93.27-9.02-.02-.32.29-.5.94-.54.65-.04.98.1,1,.43.2,3.34.31,5.99.31,7.93l.51,11.17.82,10.99c.22,1.93.44,4.68.65,8.24.01.22-.3.34-.95.38-.65.04-.98-.05-.99-.27-.25-4.1-.69-7.1-1.35-9.01-.65-1.91-1.78-3.17-3.39-3.77-1.6-.61-4.02-.81-7.26-.62l-74.88,4.48c-3.23.19-5.59.66-7.06,1.4-1.47.74-2.45,2.07-2.93,3.99-.48,1.92-.6,4.93-.35,9.03.02.32-.29.5-.94.54-.65.04-.98-.1-1-.43l-.31-7.93c-.05-4.54-.17-8.21-.33-11.02-.14-2.37-.33-4.58-.56-6.62-.23-2.04-.44-3.76-.63-5.16-.56-3.97-.94-7.57-1.13-10.81-.51-8.52,1.04-15.21,4.64-20.08,3.6-4.87,8.64-7.5,15.11-7.88,5.82-.35,11.18,1.04,16.07,4.15,4.89,3.12,8.86,7.4,11.89,12.84,12.5-9.84,22.26-18.07,29.28-24.72,7.02-6.64,12-12.46,14.94-17.45,2.95-4.99,4.28-9.8,4.01-14.44-.01-.21.3-.34.95-.38ZM1642.89,909.53c-.5-8.41-2.7-14.31-6.58-17.7-3.88-3.39-9.65-4.86-17.3-4.4-8.41.5-14.33,2.72-17.78,6.66-3.44,3.94-4.95,9.47-4.53,16.58.25,4.21,1.18,7.07,2.79,8.6,1.61,1.53,4.73,2.15,9.36,1.87l33.96-2.03c.27-2.72.29-5.91.08-9.58Z"/>
  </g>
  <path class="cls-1" d="M1550.38,713.84c26.34-10.36,39.3-40.12,28.94-66.46,10.36,26.34,40.12,39.3,66.46,28.94-26.34,10.36-39.3,40.12-28.94,66.46-10.36-26.34-40.12-39.3-66.46-28.94Z"/>
</svg>