<?xml version="1.0" encoding="UTF-8"?>
<svg id="Layer_1" data-name="Layer 1" xmlns="http://www.w3.org/2000/svg" viewBox="0 0 1928.55 1791.92">
  <defs>
    <style>
      .cls-1, .cls-2, .cls-3 {
        fill: #ffffff;
      }

      .cls-2 {
        font-size: 162.01px;
      }

      .cls-2, .cls-3 {
        font-family: CormorantGaramond-Regular, 'Cormorant Garamond';
        stroke: #ffffff;
        stroke-linejoin: round;
        stroke-width: 2px;
      }

      .cls-3 {
        font-size: 162.01px;
      }
    </style>
  </defs>
  <path class="cls-1" d="M913.49,1279.54c-63.62,0-112.74-28.22-131.38-75.5-2.89-7.32-4.29-14.41-4.29-21.66,0-35.59,33.28-66.49,91.34-84.83,9.4-41.68,25.84-88.08,48.86-137.93,23.3-50.44,47.79-92.38,64.75-119.4-48.3,25.86-94.68,39.08-164.52,57.5l-3.5,7.31c-2.57,5.73-15.62,34.89-19.42,44.48-37.11,103.88-30.01,125.55-25.32,139.89,1.52,4.63,2.83,8.63,2.03,14.4-.24,1.84-.73,5.68-2.96,5.68-.28,0-.56-.06-.84-.19-4.9-2.22-13-19.8-14.81-50.5-1.5-25.49,1.16-66.3,22.35-115.95l17.04-38.76c-29.1,6.87-58.99,12.53-88.9,16.83-33.99,35.2-84.02,86.42-126.58,125.48l-21.13,18.56c-23.85,20.85-106.59,90.83-169.9,116.19-33.26,13.2-63.38,19.89-89.53,19.89-59.38,0-86.78-33.4-99.32-61.43-4.92-10.72-7.41-21.51-7.41-32.09,0-45.1,44.84-76.69,82.47-95.25l.55-.37.04-.02c55.6-27.89,135.06-51.82,236.17-71.13,48.2-9.19,100.04-18.62,152.57-25.33l.59-.08c7.43-.96,15-1.98,22.5-3.01,41.51-41.93,81.53-84.98,123.9-130.56,16.59-17.85,33.74-36.3,51.86-55.63,4.69-4.96,16.22-17.75,30.81-33.96,15.93-17.69,35.76-39.7,55.79-61.64.97-1.79,2.13-3.56,3.35-5.42.41-.62.82-1.25,1.23-1.89.37-.74,47.12-85.43,64.89-96.28,2.03-1.29,4.02-1.95,5.91-1.95,5.46,0,8.86,6.21,8.86,16.21s-3.63,21.62-8.83,27.51c-.35.35-.68.77-1.04,1.2-.43.53-.87,1.07-1.38,1.59l-12.27,13.92c-7.65,8.47-15.44,17.26-22.98,25.76-4.3,4.85-8.62,9.72-12.96,14.59-12.92,22.11-25.01,42.15-36.7,61.54-3.3,5.47-6.6,10.94-9.91,16.45-19.29,32.08-37.01,61.81-58.56,100.79l-3.99,7.29c-9.15,16.7-19.51,35.62-30.34,56.96-1.05,2.03-2.09,4.12-3.14,6.21l-.99,1.97-4.65,9.35-.28.57c51.06-12.48,110.81-29.56,168.56-61.16,57.14-92.89,101.92-129.26,123.54-142.68,11.25-6.95,22.74-10.62,33.21-10.62,19.12,0,27.68,10.57,27.68,21.05,0,7.33-3.6,16.15-11.01,26.98-19.16,28.54-74.74,69.69-135.22,100.12-33.02,51.32-103.13,173.21-133.89,269.91,6.59-1.4,12.89-2.56,19.2-3.54,72.29-115.9,229.93-327.7,345.95-403.7,27.57-17.94,50.08-26.67,68.8-26.67,12.91,0,24.27,3.91,34.75,11.96,26.51,20.24,36.58,45.23,37.16,92.2,0,49.46-19.38,111.02-56.05,178.03-35.13,64.2-84.82,129.97-140,185.31,30.94,13.36,55.71,28.51,73.62,45.02.42.42.62,1.04.62,1.86,0,3.03-2.25,9.98-3.6,11.1-.68.68-1.62,1.1-2.53,1.1-1.01,0-2.11-.5-2.95-1.33-21.13-21.13-41.73-35.05-73.37-49.56-76.58,74.7-157.45,124.63-227.76,140.62-19.07,4.42-38.17,6.65-56.75,6.65ZM867.75,1106.48c-50.92,16.76-80.09,44.59-80.09,76.45,0,20.64,12.66,41.19,34.75,56.37,23.65,16.27,56.13,25.22,91.45,25.22,15.93,0,32.43-1.79,49.04-5.33,35.91-7.54,73.91-23.42,112.93-47.2,37.34-22.75,73.82-51.59,108.46-85.74-56.88-23.23-128.36-36.53-196.35-36.53-21.05,0-41.59,1.28-61.07,3.81-17.43,29.26-29.44,52.71-33.83,66.05-4.59,14.45-9.88,22.1-15.3,22.1-7.41,0-12.39-14.17-12.76-27.3l-.18-8.3c0-12.7.99-26.02,2.96-39.61ZM669.5,925.25c-46.84,5.3-92.8,12.08-136.62,20.16-109.7,19.87-200.93,46.13-256.88,73.93-24.51,12.26-43.41,26.54-56.16,42.44-11.92,14.87-17.96,30.44-17.96,46.29,0,13.46,4.34,26.66,12.9,39.22,13.79,20.2,37.38,30.88,68.22,30.88,22.51,0,48.79-5.79,78.13-17.21,16.28-6.36,33.73-14.69,51.87-24.75,92.51-50.93,182.82-135.2,259.13-211.25-.42.04-2.63.29-2.63.29ZM893.65,1099.38c-4.55,15.41-7.31,28.96-8.24,40.36,4.86-10.19,13.08-24.84,24.49-43.64-5.53,1.01-10.97,2.16-16.25,3.28ZM986.83,1081.72c70.18,0,144.96,13.38,205.28,36.72l4.25-4.42c47.52-49.22,90.71-108.02,121.62-165.57,34.1-63.5,52.13-122.93,52.13-171.87-.21-18.68-2.64-45.33-12.96-66.16-9.86-19.9-24.71-30-44.13-30-33.81,0-83.26,32.86-142.99,95.04-87.72,91.08-187.72,226.86-237.89,309.2,16.79-1.98,34.71-2.95,54.71-2.95ZM901.27,705.91c-63.94,72.01-126.23,139.89-185.29,201.89,29.72-4.56,56.38-9.43,81.41-14.87,19.22-41.84,39.9-77.48,56.52-106.13,2.1-3.63,4.15-7.15,6.12-10.57,15.03-26.3,29.56-50.8,41.24-70.32ZM1153.24,694.81c-14.61,0-65.59,37.72-116.07,112.87,85.33-49.74,122.29-95.07,122.29-107.39,0-4.53-3.38-5.49-6.22-5.49Z"/>
  <text class="cls-2" transform="translate(382.79 803.37) rotate(-72.28)"><tspan x="0" y="0">A</tspan></text>
  <text class="cls-2" transform="translate(426.44 675.25) rotate(-59.8)"><tspan x="0" y="0">R</tspan></text>
  <text class="cls-2" transform="translate(496.95 562.9) rotate(-49.9)"><tspan x="0" y="0">I</tspan></text>
  <text class="cls-2" transform="translate(547.16 503.25) rotate(-40.34)"><tspan x="0" y="0">T</tspan></text>
  <text class="cls-2" transform="translate(646.28 424.35) rotate(-30.83)"><tspan x="0" y="0">I</tspan></text>
  <text class="cls-2" transform="translate(712.7 384.07) rotate(-20.83)"><tspan x="0" y="0">A</tspan></text>
  <text class="cls-2" transform="translate(843.16 339.85) rotate(-11.46)"><tspan x="0" y="0"> </tspan></text>
  <text class="cls-2" transform="translate(904.06 326.45) rotate(-2.12)"><tspan x="0" y="0">D</tspan></text>
  <text class="cls-2" transform="translate(1038.42 325.01) rotate(9.3)"><tspan x="0" y="0">E</tspan></text>
  <text class="cls-2" transform="translate(1147.31 345.22) rotate(19.18)"><tspan x="0" y="0">S</tspan></text>
  <text class="cls-2" transform="translate(1244.93 382.15) rotate(27.77)"><tspan x="0" y="0">I</tspan></text>
  <text class="cls-2" transform="translate(1313.81 417.71) rotate(37.97)"><tspan x="0" y="0">G</tspan></text>
  <text class="cls-2" transform="translate(1420.39 503.83) rotate(50.86)"><tspan x="0" y="0">N</tspan></text>
  <text class="cls-2" transform="translate(1505.66 616.99) rotate(60.34)"><tspan x="0" y="0"> </tspan></text>
  <text class="cls-2" transform="translate(1536.57 674.15) rotate(66.38)"><tspan x="0" y="0"> </tspan></text>
  <text class="cls-2" transform="translate(1561.27 734.19) rotate(72.45)"><tspan x="0" y="0"> </tspan></text>
  <text class="cls-3" transform="translate(386.33 1327.88) rotate(55.15)"><tspan x="0" y="0"> </tspan></text>
  <text class="cls-3" transform="translate(431.56 1390.95) rotate(46.99)"><tspan x="0" y="0">E</tspan></text>
  <text class="cls-3" transform="translate(522.11 1483.45) rotate(35.83)"><tspan x="0" y="0">V</tspan></text>
  <text class="cls-3" transform="translate(646.88 1567.15) rotate(24.59)"><tspan x="0" y="0">E</tspan></text>
  <text class="cls-3" transform="translate(766.28 1618.68) rotate(12.85)"><tspan x="0" y="0">N</tspan></text>
  <text class="cls-3" transform="translate(924.18 1648.77) rotate(.93)"><tspan x="0" y="0">T</tspan></text>
  <text class="cls-3" transform="translate(1067.22 1644.97) rotate(-8.23)"><tspan x="0" y="0"> </tspan></text>
  <text class="cls-3" transform="translate(1145.15 1633.4) rotate(-17.56)"><tspan x="0" y="0">D</tspan></text>
  <text class="cls-3" transform="translate(1290.68 1581.53) rotate(-29.03)"><tspan x="0" y="0">E</tspan></text>
  <text class="cls-3" transform="translate(1400.88 1515.88) rotate(-39.01)"><tspan x="0" y="0">S</tspan></text>
  <text class="cls-3" transform="translate(1491.14 1437.71) rotate(-47.52)"><tspan x="0" y="0">I</tspan></text>
  <text class="cls-3" transform="translate(1554.86 1366.74) rotate(-57.61)"><tspan x="0" y="0">G</tspan></text>
  <text class="cls-3" transform="translate(1636.29 1229.35) rotate(-70.55)"><tspan x="0" y="0">N</tspan></text>
  <text class="cls-3" transform="translate(1684.07 1076.09) rotate(-82.27)"><tspan x="0" y="0">E</tspan></text>
  <text class="cls-3" transform="translate(1698.39 947.44) rotate(-93.42)"><tspan x="0" y="0">R</tspan></text>
  <path class="cls-1" d="M1550.38,713.84c26.34-10.36,39.3-40.12,28.94-66.46,10.36,26.34,40.12,39.3,66.46,28.94-26.34,10.36-39.3,40.12-28.94,66.46-10.36-26.34-40.12-39.3-66.46-28.94Z"/>
</svg>