<?xml version="1.0" encoding="UTF-8"?>
<svg id="Layer_1" data-name="Layer 1" xmlns="http://www.w3.org/2000/svg" viewBox="0 0 300.57 256.05">
  <path d="M79.7,0c3.15-.08,6.88,3.46,5.48,6.73-19.01,19.82-33.89,42.68-41.53,69.31-6.22,21.7-9.88,56.31-.73,77.33.47,1.08,3.51,7.14,4.33,7.14,6.46-9.29,16.51-12.98,27.47-13.96,40.92-3.67,64.7,26.02,58.02,65.5-5.34,31.55-34.91,45.27-64.54,43.85C-4.46,252.43-8.43,155.59,7.93,103.23,18.54,69.26,42.49,36.38,66.97,10.98c2.48-2.58,7.12-7.85,9.74-9.73.83-.6,1.96-1.23,2.99-1.26Z"/>
  <path d="M213.29,160.52c.33.28.7.03,1.03-.32,1.52-1.59,2.42-3.66,4.45-5.43,9.83-8.59,29.21-9.67,41.56-7.6,53.27,8.95,55.54,95.33-4.51,107.06-49.93,9.75-79.52-20.91-86.9-67.59-10.86-68.65,15.37-123.22,61.08-171.92,3.29-3.51,10.2-11.21,13.72-13.74,3.78-2.72,8.95.94,8.31,5.28-16.54,17.67-30.51,37.15-38.75,60.14-8.46,23.58-14.07,64.24-3.57,87.47.39.86,3.29,6.4,3.59,6.65Z"/>
</svg>