<?xml version="1.0" encoding="UTF-8"?>
<svg id="Layer_1" data-name="Layer 1" xmlns="http://www.w3.org/2000/svg" viewBox="0 -126.52 685.4 685.4">
  <defs>
    <style>
      .cls-1 {
        fill: #1c1c1c;
        stroke: #1c1c1c;
        stroke-linecap: round;
        stroke-linejoin: round;
        stroke-width: 15px;
      }
    </style>
  </defs>
  <path class="cls-1" d="M407.59,424.86c-35.21,0-62.4-15.62-72.72-41.8-1.6-4.06-2.38-7.98-2.38-12.01,0-19.71,18.41-36.81,50.51-46.97,5.2-23.04,14.29-48.68,27.01-76.23,12.81-27.73,26.27-50.81,35.64-65.76-26.6,14.2-52.2,21.49-90.67,31.64l-1.92,4.01c-1.42,3.16-8.61,19.24-10.73,24.59-20.51,57.4-16.59,69.37-14,77.29.84,2.57,1.57,4.79,1.13,8-.13,1.04-.41,3.21-1.72,3.21-.16,0-.33-.04-.5-.11-3.25-1.47-7.33-12.59-8.24-27.99-.83-14.1.64-36.68,12.36-64.15l9.35-21.28c-16.03,3.78-32.5,6.9-48.97,9.26-18.79,19.46-46.44,47.76-69.97,69.36l-11.68,10.26c-13.19,11.53-58.95,50.23-93.96,64.26-18.4,7.3-35.06,11-49.53,11-32.87,0-48.05-18.5-54.99-34.01-2.72-5.93-4.11-11.92-4.11-17.77,0-24.98,24.81-42.46,45.64-52.73l.28-.18s.04-.02.05-.03c30.74-15.42,74.69-28.66,130.6-39.34,26.65-5.08,55.32-10.29,84.36-14.01l.33-.04c4.11-.53,8.29-1.09,12.41-1.66,22.95-23.18,45.07-46.98,68.49-72.17,9.17-9.87,18.65-20.07,28.67-30.76,2.59-2.74,8.96-9.81,17.03-18.77,8.81-9.78,19.77-21.95,30.85-34.08.54-.99,1.18-1.97,1.85-3,.22-.34.44-.68.67-1.02.78-1.45,26.34-47.43,35.91-53.28,1.13-.72,2.25-1.09,3.31-1.09,3.07,0,4.98,3.47,4.98,9.04,0,4.83-1.52,11.43-4.9,15.27-.19.2-.38.42-.57.66-.23.28-.48.6-.77.88l-6.78,7.69c-4.23,4.69-8.54,9.55-12.71,14.25-2.38,2.68-4.76,5.37-7.16,8.05-7.14,12.22-13.82,23.3-20.28,34.01-1.83,3.03-3.65,6.05-5.48,9.1-10.66,17.73-20.45,34.16-32.38,55.72l-2.21,4.03c-5.06,9.23-10.79,19.69-16.77,31.49-.59,1.14-1.17,2.31-1.76,3.48l-.52,1.04-2.65,5.32c28.18-6.9,61.13-16.33,92.98-33.75,31.6-51.36,56.36-71.48,68.32-78.9,6.23-3.85,12.6-5.89,18.41-5.89,10.63,0,15.39,5.89,15.39,11.72,0,4.07-2,8.96-6.1,14.96-10.6,15.78-41.33,38.55-74.77,55.38-18.24,28.36-56.94,95.64-73.96,149.06,3.58-.76,7.01-1.39,10.44-1.92,39.98-64.09,127.14-181.18,191.28-223.2,15.47-10.07,27.57-14.76,38.08-14.76,7.16,0,13.46,2.17,19.26,6.63,14.68,11.21,20.26,25.04,20.58,51.04,0,27.36-10.72,61.41-31,98.48-19.41,35.47-46.85,71.81-77.33,102.39,17.07,7.38,30.73,15.74,40.61,24.86.25.25.37.61.37,1.09,0,1.6-1.19,5.51-2.02,6.2-.39.39-.93.63-1.45.63-.58,0-1.21-.28-1.69-.76-11.66-11.66-23.04-19.35-40.49-27.36-42.34,41.29-87.05,68.89-125.93,77.73-10.55,2.44-21.11,3.68-31.39,3.68v.02ZM382.2,329.21c-28.04,9.26-44.1,24.6-44.1,42.15,0,11.38,6.99,22.72,19.17,31.1,13.06,8.98,31,13.93,50.51,13.93,8.8,0,17.92-.99,27.1-2.94,19.85-4.17,40.85-12.94,62.41-26.08,20.61-12.55,40.74-28.47,59.86-47.31-31.42-12.81-70.88-20.15-108.41-20.15-11.62,0-22.96.71-33.72,2.1-9.62,16.16-16.25,29.1-18.67,36.47-2.59,8.14-5.46,12.28-8.54,12.28-4.15,0-6.93-7.88-7.14-15.17l-.1-4.59c0-6.99.54-14.31,1.62-21.78h.01ZM272.7,228.97c-25.9,2.93-51.31,6.68-75.53,11.14-60.65,10.99-111.08,25.5-142.01,40.87-13.54,6.77-23.98,14.66-31.02,23.44-6.58,8.2-9.91,16.8-9.91,25.54,0,7.42,2.4,14.71,7.12,21.64,7.61,11.14,20.63,17.03,37.65,17.03,12.43,0,26.96-3.2,43.17-9.51,9-3.52,18.64-8.12,28.67-13.68,28.76-15.84,68.26-42.09,143.09-116.62-.16.02-1.22.13-1.22.13v.02ZM396.69,325.23c-2.44,8.29-3.95,15.61-4.5,21.8,2.7-5.59,7.14-13.49,13.25-23.56-2.97.55-5.9,1.16-8.75,1.77h0ZM448.14,315.31c38.79,0,80.13,7.39,113.48,20.29l2.31-2.4c26.27-27.21,50.15-59.71,67.23-91.53,18.85-35.1,28.81-67.94,28.81-94.99-.18-15.96-3.62-53.08-31.48-53.08-18.67,0-45.99,18.16-79,52.52-48.45,50.3-103.67,125.26-131.43,170.8,9.24-1.08,19.09-1.61,30.09-1.61h-.01ZM400.3,108.33c-35.08,39.5-69.27,76.74-101.69,110.78,16.32-2.51,30.97-5.19,44.72-8.17,10.63-23.12,22.05-42.82,31.24-58.65,1.16-2,2.29-3.95,3.38-5.84,6.61-11.57,13.6-23.49,22.35-38.12M540.15,101.55c-8.04,0-36.07,20.74-63.9,62.07,46.92-27.41,67.26-52.34,67.26-59.12,0-2.44-1.83-2.95-3.36-2.95"/>
</svg>