<?xml version="1.0" encoding="UTF-8"?>
<svg id="Layer_1" data-name="Layer 1" xmlns="http://www.w3.org/2000/svg" viewBox="0 0 1791.92 1791.92">
  <defs>
    <style>
      .cls-1 {
        fill: #2f2f2f;
      }

      .cls-2 {
        fill: #fff;
      }
    </style>
  </defs>
  <circle class="cls-2" cx="895.96" cy="895.96" r="895.96"/>
  <g>
    <path class="cls-1" d="M1040.56,1364.88c-80.11,0-142.02-35.73-165.63-95.57-3.75-9.5-5.57-18.71-5.57-28.16,0-45.25,41.21-84.4,113.16-107.65,11.73-51.06,31.9-107.75,59.98-168.54,25.59-55.4,52.35-102.48,72.38-135.24-55.05,27.61-109.47,43.06-188.89,64.03l-3.51,7.34c-3.12,6.96-19.09,42.64-23.8,54.5-45.24,126.66-36.75,152.57-31.14,169.72,1.94,5.92,3.77,11.51,2.66,19.54-.37,2.84-1.35,10.46-7.61,10.46-.91,0-1.81-.2-2.68-.59-8.33-3.77-18.38-28.05-20.6-65.64-1.88-31.84,1.43-82.79,27.86-144.7l17.8-40.49c-33.06,7.58-66.91,13.89-100.75,18.79-41.84,43.31-103.04,105.93-155.21,153.82l-26.1,22.93c-29.52,25.8-131.92,112.4-210.52,143.89-41.46,16.46-79.08,24.8-111.82,24.8-75.31,0-110.12-42.45-126.05-78.06-6.29-13.7-9.48-27.57-9.48-41.18,0-57.55,56.29-97.46,103.63-120.85l.46-.31c.14-.09.28-.18.43-.25,68.89-34.55,167.16-64.17,292.13-88.04,59.46-11.34,123.42-22.97,188.25-31.25l.7-.09c8.71-1.13,17.57-2.31,26.37-3.52,50.8-51.35,99.79-104.06,151.64-159.84l.11-.12c20.41-21.96,41.52-44.66,63.81-68.45,5.73-6.05,19.8-21.68,37.62-41.46l.29-.33c19.52-21.68,43.8-48.63,68.45-75.62,1.21-2.19,2.59-4.29,4.04-6.51l.17-.26c.42-.64.84-1.29,1.27-1.95,3.3-6.1,58.53-106.1,81.32-120.01,3.09-1.97,6.27-2.99,9.37-2.99,7.21,0,14.92,6.3,14.92,23.97,0,13.81-4.77,28.5-11.88,36.55-.05.06-.11.12-.16.17-.29.29-.64.72-1,1.18-.54.67-1.15,1.42-1.89,2.17l-15.04,17.07c-9.45,10.47-19.05,21.29-28.33,31.75-5.22,5.88-10.45,11.78-15.71,17.68-15.81,27.05-30.61,51.58-44.92,75.31l-.13.22c-4.07,6.74-8.13,13.48-12.21,20.26-23.74,39.49-45.55,76.08-72.1,124.08l-4.96,9.06c-11.24,20.52-23.98,43.79-37.27,69.98-1.27,2.46-2.52,4.96-3.77,7.46l-1.31,2.6-2.23,4.48c60.18-14.99,129.75-35.53,197.45-72.42,70.58-114.51,126.12-159.55,152.98-176.22,14.5-8.96,29.38-13.69,43.04-13.69,26.33,0,38.12,15.04,38.12,29.94,0,9.86-4.67,21.47-14.26,35.5-23.82,35.48-92.47,86.48-167.15,124.21-39.89,62.15-123.23,207.11-161.85,324.23,5.17-1.02,10.24-1.92,15.32-2.74,89.59-143.28,283.61-403.53,426.55-497.17,34.66-22.55,63.11-33.51,86.97-33.51,16.82,0,31.62,5.09,45.26,15.56,33.79,25.8,46.63,57.44,47.36,116.74,0,61.66-24.05,138.19-69.56,221.36-42.56,77.8-102.48,157.54-169.09,225.11,36.06,16.07,65.13,34.17,86.49,53.86.04.04.08.07.11.11.88.88,1.94,2.49,1.94,5.13,0,3.82-2.6,13.7-5.67,16.58-1.59,1.57-3.73,2.46-5.87,2.46-2.31,0-4.67-1.03-6.46-2.81-25.15-25.15-49.64-41.87-86.77-59.12-94.29,91.49-193.87,152.68-280.61,172.41-23.78,5.51-47.61,8.3-70.82,8.3ZM979.37,1153.49c-57.21,20.23-89.86,52.22-89.86,88.34,0,24.1,14.97,48.22,41.08,66.17,28.49,19.59,67.71,30.38,110.42,30.38,19.35,0,39.4-2.18,59.6-6.48,43.82-9.2,90.22-28.6,137.92-57.66,44.17-26.91,87.4-60.81,128.56-100.82-68.66-27.02-153.82-42.45-234.79-42.45-25.08,0-49.57,1.49-72.82,4.42-20.79,35.03-35.1,63.01-40.33,78.92-6.4,20.16-13.82,29.98-22.65,29.98-12.12,0-19.21-19.33-19.72-37.52l-.23-10.25c0-13.9.94-28.32,2.81-43.03ZM732.17,929.19c-54.78,6.37-108.55,14.39-159.92,23.86-134.84,24.43-246.88,56.66-315.5,90.76-29.68,14.84-52.52,32.07-67.87,51.22-14.1,17.59-21.25,35.94-21.25,54.54,0,15.77,5.12,31.27,15.2,46.09,16.21,23.75,44.14,36.3,80.76,36.3,27.24,0,59.14-7.04,94.83-20.93,19.9-7.78,41.24-17.96,63.44-30.26,110.68-60.94,218.53-160.52,310.31-251.57ZM1019.28,1142.28c-2.39,8.29-4.35,16.12-5.87,23.45,4.17-7.49,9.06-15.93,14.65-25.28-3.02.61-5.97,1.23-8.79,1.83ZM1130.95,1113.1c85.96,0,177.6,16.23,251.92,44.57l3.39-3.53c58.32-60.4,111.32-132.55,149.23-203.15,41.71-77.67,63.76-150.26,63.76-209.9-.26-22.56-3.17-54.76-15.55-79.75-11.42-23.05-28.51-34.74-50.8-34.74-28.28,0-81.3,20.1-173.33,115.89-105.21,109.24-225.54,271.83-288.37,373.39,18.48-1.86,38.12-2.77,59.74-2.77ZM1000.81,687.7c-66.22,74.03-130.86,144.26-192.63,209.29,31.17-4.96,59.6-10.23,86.52-16.04,23.53-50.95,48.71-94.35,68.98-129.3,2.59-4.47,5.11-8.81,7.54-13.02,10.41-18.21,20.53-35.57,29.59-50.94ZM1336.02,644.3c-15.61,0-72.11,41.9-129.26,122.21,94.41-57.81,132.93-107.67,132.93-119.45,0-1.36,0-2.76-3.67-2.76Z"/>
    <path class="cls-1" d="M1175.1,431.04c6.73,0,10.92,7.65,10.92,19.97s-4.47,26.64-10.88,33.9c-.43.43-.84.94-1.28,1.48-.53.65-1.07,1.32-1.7,1.96l-15.12,17.15c-9.42,10.44-19.03,21.27-28.32,31.74-5.3,5.98-10.62,11.98-15.97,17.97-15.92,27.25-30.82,51.95-45.22,75.83-4.07,6.74-8.13,13.48-12.21,20.27-23.77,39.53-45.6,76.17-72.17,124.2l-4.91,8.98c-11.27,20.58-24.04,43.9-37.39,70.19-1.29,2.5-2.58,5.08-3.87,7.65l-1.22,2.43-5.73,11.52-.34.7c62.92-15.38,136.56-36.43,207.72-75.36,70.42-114.47,125.6-159.29,152.24-175.83,13.86-8.56,28.02-13.09,40.93-13.09,23.57,0,34.12,13.03,34.12,25.94,0,9.03-4.44,19.9-13.57,33.25-23.61,35.16-92.11,85.88-166.63,123.38-40.69,63.24-127.08,213.46-164.99,332.61,8.12-1.73,15.89-3.16,23.67-4.37,89.08-142.82,283.35-403.83,426.32-497.49,33.98-22.11,61.71-32.86,84.78-32.86,15.91,0,29.91,4.82,42.82,14.73,32.67,24.94,45.08,55.74,45.79,113.62,0,60.95-23.88,136.81-69.07,219.4-43.29,79.12-104.52,160.16-172.52,228.36,38.13,16.47,68.65,35.13,90.72,55.48.52.51.76,1.28.76,2.3,0,3.73-2.78,12.3-4.43,13.68-.84.84-1.99,1.36-3.11,1.36-1.24,0-2.6-.61-3.63-1.64-26.04-26.04-51.43-43.2-90.41-61.08-94.37,92.06-194.02,153.59-280.68,173.29-23.5,5.44-47.03,8.2-69.93,8.2-78.4,0-138.93-34.78-161.91-93.04-3.56-9.02-5.29-17.75-5.29-26.7,0-43.85,41.02-81.94,112.56-104.53,11.59-51.36,31.84-108.55,60.22-169.97,28.71-62.16,58.89-113.84,79.79-147.14-59.52,31.87-116.67,48.16-202.75,70.86l-4.31,9.01c-3.17,7.06-19.24,42.99-23.93,54.81-45.73,128.01-36.98,154.71-31.2,172.38,1.87,5.71,3.48,10.64,2.5,17.75-.29,2.27-.9,7-3.65,7-.34,0-.69-.08-1.03-.24-6.04-2.73-16.02-24.4-18.25-62.23-1.85-31.41,1.42-81.7,27.54-142.89l21-47.77c-35.85,8.47-72.7,15.44-109.55,20.74-41.89,43.38-103.53,106.49-155.99,154.63l-26.04,22.87c-29.39,25.69-131.35,111.93-209.37,143.19-40.98,16.26-78.1,24.51-110.33,24.51-73.17,0-106.95-41.16-122.4-75.7-6.06-13.21-9.14-26.51-9.14-39.54,0-55.58,55.25-94.5,101.63-117.37l.67-.45.05-.03c68.51-34.36,166.43-63.86,291.04-87.66,59.4-11.32,123.28-22.94,188.01-31.22l.72-.1c9.16-1.19,18.49-2.43,27.73-3.71,51.16-51.68,100.47-104.73,152.68-160.89,20.44-21.99,41.58-44.73,63.91-68.56,5.78-6.11,19.98-21.88,37.97-41.84,19.63-21.8,44.06-48.93,68.75-75.96,1.2-2.21,2.62-4.38,4.13-6.68.5-.76,1.01-1.54,1.51-2.33.45-.92,58.06-105.28,79.96-118.65,2.5-1.59,4.96-2.4,7.29-2.4M1063.53,1120.73c20.69-2.44,42.77-3.63,67.42-3.63,86.48,0,178.64,16.49,252.96,45.25l5.23-5.44c58.56-60.66,111.79-133.12,149.87-204.03,42.03-78.26,64.24-151.49,64.24-211.8-.26-23.02-3.25-55.87-15.97-81.53-12.16-24.53-30.45-36.96-54.38-36.96-41.67,0-102.6,40.5-176.22,117.11-108.1,112.24-231.33,279.56-293.16,381.03M1192.99,779.4c105.15-61.3,150.7-117.16,150.7-132.33,0-5.59-4.17-6.76-7.67-6.76-18,0-80.82,46.48-143.03,139.09M1025.51,653.97c-78.79,88.74-155.56,172.39-228.34,248.79,36.63-5.62,69.48-11.62,100.32-18.32,23.69-51.56,49.17-95.48,69.65-130.79,2.59-4.47,5.11-8.81,7.54-13.02,18.52-32.41,36.42-62.6,50.82-86.66M743.14,923.93c-.52.06-3.25.35-3.25.35-57.72,6.53-114.36,14.89-168.36,24.84-135.19,24.49-247.61,56.85-316.56,91.11-30.21,15.1-53.49,32.7-69.21,52.3-14.69,18.32-22.13,37.51-22.13,57.05,0,16.59,5.35,32.85,15.9,48.34,16.99,24.89,46.06,38.05,84.07,38.05,27.73,0,60.13-7.14,96.28-21.21,20.06-7.84,41.57-18.1,63.92-30.49,114-62.77,225.29-166.61,319.34-260.33M996.51,1240.29c-9.13,0-15.27-17.46-15.72-33.64l-.23-10.22c0-15.65,1.23-32.06,3.65-48.81-62.75,20.66-98.69,54.95-98.69,94.21,0,25.43,15.61,50.75,42.82,69.47,29.15,20.04,69.17,31.08,112.69,31.08,19.63,0,39.96-2.21,60.44-6.56,44.26-9.29,91.08-28.86,139.17-58.16,46.01-28.03,90.97-63.58,133.66-105.66-70.09-28.62-158.18-45.02-241.97-45.02-25.94,0-51.26,1.58-75.26,4.7-21.48,36.06-36.28,64.96-41.69,81.39-5.66,17.81-12.18,27.23-18.85,27.23M1036.14,1134.83c-6.82,1.24-13.52,2.66-20.02,4.04-5.61,18.99-9.01,35.69-10.15,49.73,5.99-12.56,16.12-30.61,30.17-53.77M1175.1,423.04c-3.85,0-7.73,1.22-11.52,3.61-3.85,2.35-15.46,9.62-50.61,66.59-15.82,25.64-29.75,50.61-32,54.75-.44.69-.88,1.36-1.32,2.03,0,0-.03.04-.03.04-1.4,2.15-2.74,4.19-3.96,6.35-24.59,26.93-48.73,53.73-68.16,75.31l-.16.18c-17.86,19.83-31.97,35.5-37.67,41.52-22.5,24.01-43.58,46.68-63.96,68.61-51.51,55.42-100.21,107.8-150.6,158.78-8.35,1.15-16.74,2.26-24.98,3.33l-.76.1c-64.9,8.3-128.93,19.94-188.45,31.29-125.33,23.94-223.95,53.67-293.12,88.37l-.05.03c-.29.15-.58.31-.85.5l-.24.16c-28.96,14.33-52.46,30.38-69.85,47.7-23.74,23.65-35.78,49.43-35.78,76.62,0,14.17,3.31,28.58,9.84,42.83,10.02,22.4,24.17,40.54,42.05,53.92,23.49,17.58,52.98,26.49,87.64,26.49s71.36-8.44,113.29-25.07c79.22-31.74,182.05-118.7,211.68-144.6l26.05-22.88s.09-.08.13-.12c51.87-47.6,112.59-109.69,154.44-153,30.86-4.5,61.71-10.18,91.97-16.91l-14.59,33.19s-.02.05-.03.08c-26.73,62.62-30.07,114.23-28.17,146.5,1.32,22.33,5.13,37.54,8.1,46.36,4.21,12.51,9.2,20.14,14.84,22.69,1.4.63,2.85.95,4.33.95,1.73,0,7.6-.57,10.26-7.92.83-2.28,1.13-4.61,1.31-6.02,1.22-8.92-.84-15.21-2.83-21.3-2.81-8.57-5.98-18.27-3.37-41.43,3.24-28.69,14.51-69.78,34.45-125.64,4.64-11.66,20.46-47.02,23.7-54.27l2.67-5.58c72.88-19.26,124.75-33.96,175.66-57.91-19.09,31.96-42.81,74.72-65.59,124.05-27.79,60.17-47.87,116.36-59.73,167.11-72.38,23.91-113.78,64.12-113.78,110.75,0,9.97,1.91,19.66,5.85,29.63,24.23,61.43,87.54,98.1,169.35,98.1,23.51,0,47.64-2.83,71.74-8.41,86.81-19.74,186.26-80.58,280.49-171.51,35.28,16.64,58.92,32.94,83.14,57.16,2.54,2.54,5.92,3.99,9.29,3.99s6.44-1.36,8.79-3.72h0c4.22-4.25,6.76-15.3,6.76-19.32s-1.69-6.54-3.11-7.96c-.07-.07-.15-.15-.23-.22-20.62-19.02-48.29-36.56-82.34-52.21,65.25-66.94,123.85-145.35,165.74-221.91,45.83-83.76,70.05-160.96,70.05-223.24,0-.03,0-.07,0-.1-.38-30.64-4.03-53.54-11.49-72.05-7.64-18.96-19.54-34.15-37.44-47.82-14.34-11.01-29.94-16.37-47.68-16.37-24.67,0-53.82,11.17-89.14,34.15-80.9,53-172.55,155.39-235.19,231.95-68.64,83.9-140.06,182.66-191.61,264.92-2.31.38-4.61.78-6.93,1.2,39.16-114.99,119.38-254.61,158.66-315.96,36.27-18.39,71.36-39.9,101.61-62.3,31.13-23.05,53.98-44.75,66.08-62.75,10.06-14.71,14.95-27.05,14.95-37.74,0-9.21-3.89-17.67-10.96-23.84-7.57-6.61-18.35-10.1-31.16-10.1-14.4,0-30.01,4.94-45.13,14.28-27.1,16.82-82.98,62.09-153.73,176.62-63.87,34.65-129.47,54.74-187.13,69.42,1.11-2.22,2.25-4.49,3.38-6.68,0-.02.02-.03.03-.05,13.29-26.19,26.03-49.45,37.27-69.97l4.92-8.98c26.49-47.89,48.28-84.46,72.01-123.92,4.08-6.78,8.14-13.52,12.21-20.26,14.31-23.74,29.09-48.23,44.88-75.24,5.17-5.8,10.32-11.61,15.45-17.39l.06-.07c9.26-10.44,18.83-21.23,28.21-31.62.02-.02.04-.05.06-.07l14.98-16.99c.84-.86,1.52-1.7,2.07-2.38.26-.32.59-.73.73-.87.11-.11.22-.23.33-.35,7.7-8.73,12.88-24.48,12.88-39.19,0-7.49-1.32-13.69-3.91-18.44-3.31-6.06-8.78-9.53-15-9.53h0ZM1078.87,1111.14c63.78-101.72,180.9-259.27,283.59-365.89,36.24-37.72,69.46-66.71,98.76-86.17,28.44-18.9,52.57-28.49,71.7-28.49,20.93,0,36.37,10.64,47.21,32.52,12.04,24.29,14.88,55.82,15.14,78.01-.01,58.98-21.89,130.9-63.29,207.97-37.74,70.28-90.51,142.12-148.58,202.26l-1.57,1.64c-74.31-27.93-165.39-43.89-250.87-43.89-18.64,0-35.83.67-52.08,2.04h0ZM1222.44,751.89c25.45-33.53,48.08-56.49,64-70.83,11.77-10.61,23.04-19.34,32.59-25.24,9.95-6.15,14.84-7.27,16.43-7.47-1.49,5.26-10.46,20.03-33.47,42.05-15.6,14.93-41.12,36.53-79.55,61.5h0ZM819.24,891.15c51.11-53.97,104.12-111.42,158.32-171.56-3.23,5.58-6.51,11.29-9.82,17.08-2.41,4.18-4.93,8.51-7.52,12.98-20.08,34.62-44.95,77.5-68.31,127.82-22.86,4.89-46.83,9.41-72.67,13.68h0ZM263.6,1227.96c-35.24,0-62.02-11.95-77.46-34.56-9.62-14.13-14.51-28.88-14.51-43.83,0-17.67,6.86-35.18,20.38-52.04,14.99-18.69,37.38-35.56,66.54-50.15,68.27-33.93,179.94-66.03,314.4-90.39,47.67-8.79,97.41-16.33,148.13-22.46-89.76,88.58-194.19,183.83-301.14,242.72-22.06,12.23-43.24,22.34-62.98,30.05-35.21,13.71-66.63,20.66-93.37,20.66h0ZM1061.93,1139.12c22.51-2.75,46.17-4.15,70.38-4.15,78.21,0,160.34,14.48,227.5,39.93-39.59,37.91-81.04,70.15-123.35,95.93-47.31,28.82-93.28,48.06-136.65,57.16-19.94,4.24-39.72,6.39-58.79,6.39-41.92,0-80.33-10.54-108.16-29.68-25.01-17.2-39.35-40.11-39.35-62.88,0-33.05,29.38-62.67,81.12-82.34-1.38,12.62-2.08,25-2.08,36.94,0,.06,0,.12,0,.18l.23,10.22c.26,9.25,2.17,18.66,5.25,25.85,5.81,13.58,14.06,15.6,18.47,15.6,10.8,0,19.46-10.72,26.46-32.77,5.07-15.39,18.86-42.44,38.96-76.41h0Z"/>
  </g>
</svg>